<svg width="58" height="77" viewBox="0 0 58 77" fill="none" xmlns="http://www.w3.org/2000/svg">
<path d="M5.576 63.016C4.584 63.016 3.64 62.728 2.744 62.152C1.848 61.576 1.176 60.712 0.727999 59.56C0.567999 59.144 0.471999 58.696 0.439999 58.216C0.375999 57.768 0.343999 57.32 0.343999 56.872C0.343999 56.424 0.423999 56.2 0.584 56.2C0.743999 56.2 0.823999 56.328 0.823999 56.584C0.823999 58.088 1.208 59.224 1.976 59.992C2.712 60.76 3.656 61.144 4.808 61.144C5.928 61.144 7.016 60.824 8.072 60.184C9.096 59.544 10.056 58.728 10.952 57.736C12.456 56.104 13.816 54.248 15.032 52.168C16.28 50.056 17.4 47.88 18.392 45.64C18.648 45.096 19.016 44.232 19.496 43.048C19.976 41.832 20.504 40.52 21.08 39.112C21.656 37.672 22.216 36.376 22.76 35.224C23.24 34.136 23.64 33.272 23.96 32.632C24.312 31.992 24.776 31.448 25.352 31C25.928 30.552 26.792 30.104 27.944 29.656C27.432 29.688 26.952 29.736 26.504 29.8C26.056 29.832 25.704 29.848 25.448 29.848C24.232 29.88 23.016 29.96 21.8 30.088C20.584 30.216 19.496 30.456 18.536 30.808C17.576 31.128 16.888 31.592 16.472 32.2C16.184 32.616 16.04 33.096 16.04 33.64C16.04 34.184 16.184 34.712 16.472 35.224C16.76 35.736 17.128 36.104 17.576 36.328C17.64 36.392 17.672 36.44 17.672 36.472C17.672 36.536 17.592 36.616 17.432 36.712C17.304 36.776 17.16 36.792 17 36.76C16.744 36.6 16.424 36.344 16.04 35.992C15.656 35.608 15.304 35.208 14.984 34.792C14.696 34.376 14.504 34.024 14.408 33.736C14.28 33.352 14.216 32.968 14.216 32.584C14.216 31.816 14.488 31.192 15.032 30.712C15.608 30.232 16.344 29.864 17.24 29.608C18.136 29.352 19.096 29.176 20.12 29.08C21.176 28.952 22.184 28.888 23.144 28.888C24.136 28.856 24.984 28.84 25.688 28.84H30.872C30.936 28.84 30.968 28.856 30.968 28.888C30.968 28.984 30.856 29.128 30.632 29.32C30.44 29.48 30.312 29.56 30.248 29.56C29.352 29.592 28.552 29.928 27.848 30.568C27.176 31.208 26.584 31.944 26.072 32.776C25.592 33.576 25.192 34.312 24.872 34.984C24.68 35.368 24.376 35.992 23.96 36.856C23.576 37.688 23.144 38.648 22.664 39.736C22.216 40.792 21.752 41.848 21.272 42.904C20.824 43.96 20.424 44.872 20.072 45.64C19.24 47.56 18.456 49.352 17.72 51.016C17.016 52.648 16.232 54.184 15.368 55.624C14.504 57.064 13.432 58.472 12.152 59.848C11.352 60.712 10.344 61.448 9.128 62.056C7.88 62.696 6.696 63.016 5.576 63.016Z" fill="#FF7A00"/>
<path d="M2.744 62.152L3.39291 61.1426L3.39291 61.1426L2.744 62.152ZM0.727999 59.56L-0.392023 59.9908L-0.390406 59.9949L0.727999 59.56ZM0.439999 58.216L1.63734 58.1362L1.63433 58.0911L1.62794 58.0463L0.439999 58.216ZM1.976 59.992L2.84239 59.1617L2.83355 59.1525L2.82453 59.1435L1.976 59.992ZM8.072 60.184L8.69396 61.2102L8.70101 61.206L8.708 61.2016L8.072 60.184ZM10.952 57.736L10.0695 56.9227L10.0615 56.9317L10.952 57.736ZM15.032 52.168L13.9989 51.5575L13.996 51.5624L15.032 52.168ZM18.392 45.64L17.3062 45.129L17.3004 45.1415L17.2948 45.1541L18.392 45.64ZM19.496 43.048L20.6081 43.4989L20.6122 43.4886L19.496 43.048ZM21.08 39.112L22.1907 39.5664L22.1942 39.5577L21.08 39.112ZM22.76 35.224L23.8451 35.7364L23.8517 35.7225L23.8579 35.7084L22.76 35.224ZM23.96 32.632L22.9085 32.0537L22.8972 32.0743L22.8867 32.0953L23.96 32.632ZM25.352 31L26.0887 31.9472L26.0887 31.9472L25.352 31ZM27.944 29.656L28.3789 30.7744L27.8691 28.4583L27.944 29.656ZM26.504 29.8L26.5895 30.9969L26.6318 30.9939L26.6737 30.9879L26.504 29.8ZM25.448 29.848V28.648H25.4322L25.4164 28.6484L25.448 29.848ZM21.8 30.088L21.6744 28.8946L21.6744 28.8946L21.8 30.088ZM18.536 30.808L18.9155 31.9464L18.9324 31.9408L18.9491 31.9347L18.536 30.808ZM16.472 32.2L17.4586 32.8831L17.4624 32.8776L16.472 32.2ZM16.472 35.224L17.5179 34.6357L17.5179 34.6357L16.472 35.224ZM17.576 36.328L18.4245 35.4795L18.2868 35.3418L18.1127 35.2547L17.576 36.328ZM17.432 36.712L17.9687 37.7853L18.0099 37.7647L18.0494 37.741L17.432 36.712ZM17 36.76L16.364 37.7776L16.5498 37.8937L16.7647 37.9367L17 36.76ZM16.04 35.992L15.1915 36.8405L15.2099 36.859L15.2291 36.8766L16.04 35.992ZM14.984 34.792L13.9974 35.4751L14.0145 35.4998L14.0329 35.5237L14.984 34.792ZM14.408 33.736L15.5464 33.3565L15.5464 33.3565L14.408 33.736ZM15.032 30.712L14.2638 29.7901L14.2508 29.801L14.2381 29.8122L15.032 30.712ZM17.24 29.608L16.9103 28.4542L16.9103 28.4542L17.24 29.608ZM20.12 29.08L20.232 30.2748L20.2482 30.2732L20.2644 30.2713L20.12 29.08ZM23.144 28.888V30.088H23.1634L23.1827 30.0874L23.144 28.888ZM30.632 29.32L31.4002 30.2419L31.4066 30.2365L31.4129 30.2311L30.632 29.32ZM30.248 29.56V28.36H30.2266L30.2052 28.3608L30.248 29.56ZM27.848 30.568L27.0408 29.6801L27.0305 29.6894L27.0204 29.699L27.848 30.568ZM26.072 32.776L25.0499 32.147L25.043 32.1586L26.072 32.776ZM24.872 34.984L25.9453 35.5207L25.9505 35.5103L25.9554 35.4999L24.872 34.984ZM23.96 36.856L22.8788 36.3354L22.8746 36.3442L22.8704 36.3531L23.96 36.856ZM22.664 39.736L21.5661 39.2516L21.5626 39.2595L21.5593 39.2673L22.664 39.736ZM21.272 42.904L20.1796 42.4074L20.1733 42.4213L20.1673 42.4353L21.272 42.904ZM20.072 45.64L18.9811 45.14L18.9759 45.1514L18.9709 45.1629L20.072 45.64ZM17.72 51.016L16.6225 50.5306L16.6181 50.5407L17.72 51.016ZM12.152 59.848L11.2734 59.0307L11.2715 59.0327L12.152 59.848ZM9.128 62.056L8.59132 60.9826L8.58042 60.9882L9.128 62.056ZM5.576 61.816C4.83121 61.816 4.11027 61.6037 3.39291 61.1426L2.09509 63.1614C3.16973 63.8523 4.33679 64.216 5.576 64.216V61.816ZM3.39291 61.1426C2.74304 60.7248 2.21778 60.08 1.8464 59.1251L-0.390406 59.9949C0.13422 61.344 0.952957 62.4272 2.09509 63.1614L3.39291 61.1426ZM1.84801 59.1292C1.73455 58.8342 1.66196 58.5055 1.63734 58.1362L-0.757343 58.2958C-0.717963 58.8865 -0.598554 59.4538 -0.392016 59.9908L1.84801 59.1292ZM1.62794 58.0463C1.57189 57.6539 1.544 57.2626 1.544 56.872H-0.856001C-0.856001 57.3774 -0.819889 57.8821 -0.74794 58.3857L1.62794 58.0463ZM1.544 56.872C1.544 56.6863 1.56486 56.6854 1.53409 56.7716C1.51655 56.8207 1.45656 56.9711 1.29778 57.1193C1.11196 57.2927 0.856565 57.4 0.584 57.4V55C0.231434 55 -0.0939561 55.1353 -0.339782 55.3647C-0.558566 55.5689 -0.668548 55.8033 -0.726091 55.9644C-0.836867 56.2746 -0.856001 56.6097 -0.856001 56.872H1.544ZM0.584 57.4C0.461809 57.4 0.296386 57.3746 0.124293 57.2828C-0.0508861 57.1894 -0.174783 57.0581 -0.253599 56.932C-0.389539 56.7145 -0.376001 56.5422 -0.376001 56.584H2.024C2.024 56.3698 1.99754 56.0055 1.7816 55.66C1.50689 55.2205 1.04779 55 0.584 55V57.4ZM-0.376001 56.584C-0.376001 58.2815 0.0593523 59.7724 1.12747 60.8405L2.82453 59.1435C2.35665 58.6756 2.024 57.8945 2.024 56.584H-0.376001ZM1.10961 60.8223C2.092 61.8474 3.35904 62.344 4.808 62.344V59.944C3.95296 59.944 3.332 59.6726 2.84239 59.1617L1.10961 60.8223ZM4.808 62.344C6.16938 62.344 7.47023 61.9519 8.69396 61.2102L7.45004 59.1578C6.56177 59.6961 5.68662 59.944 4.808 59.944V62.344ZM8.708 61.2016C9.83578 60.4967 10.8799 59.6062 11.8425 58.5403L10.0615 56.9317C9.23215 57.8498 8.35622 58.5913 7.436 59.1664L8.708 61.2016ZM11.8344 58.5492C13.4017 56.8486 14.8121 54.9219 16.068 52.7736L13.996 51.5624C12.8199 53.5741 11.5103 55.3594 10.0696 56.9228L11.8344 58.5492ZM16.0651 52.7785C17.3369 50.6263 18.4783 48.4087 19.4892 46.1259L17.2948 45.1541C16.3217 47.3513 15.2231 49.4857 13.9989 51.5575L16.0651 52.7785ZM19.4778 46.151C19.7486 45.5755 20.1269 44.6859 20.6081 43.4988L18.3839 42.5972C17.9051 43.7781 17.5474 44.6165 17.3062 45.129L19.4778 46.151ZM20.6122 43.4886C21.0901 42.2779 21.6162 40.9705 22.1907 39.5664L19.9693 38.6576C19.3918 40.0695 18.8619 41.3861 18.3798 42.6074L20.6122 43.4886ZM22.1942 39.5577C22.763 38.1356 23.3134 36.8624 23.8451 35.7364L21.6749 34.7116C21.1186 35.8896 20.549 37.2084 19.9658 38.6663L22.1942 39.5577ZM23.8579 35.7084C24.3345 34.6281 24.7257 33.7839 25.0333 33.1687L22.8867 32.0953C22.5543 32.7601 22.1455 33.6439 21.6621 34.7396L23.8579 35.7084ZM25.0115 33.2103C25.2848 32.7133 25.6418 32.2948 26.0887 31.9472L24.6153 30.0528C23.9102 30.6011 23.3392 31.2707 22.9085 32.0537L25.0115 33.2103ZM26.0887 31.9472C26.5311 31.6031 27.2713 31.2051 28.3789 30.7744L27.5091 28.5376C26.3127 29.0029 25.3249 29.5009 24.6153 30.0528L26.0887 31.9472ZM27.8691 28.4583C27.3295 28.4921 26.8176 28.543 26.3343 28.6121L26.6737 30.9879C27.0864 30.929 27.5345 30.8839 28.0189 30.8537L27.8691 28.4583ZM26.4185 28.603C25.9812 28.6343 25.662 28.648 25.448 28.648V31.048C25.746 31.048 26.1308 31.0297 26.5895 30.9969L26.4185 28.603ZM25.4164 28.6484C24.1689 28.6812 22.9215 28.7633 21.6744 28.8946L21.9256 31.2814C23.1105 31.1567 24.2952 31.0788 25.4796 31.0476L25.4164 28.6484ZM21.6744 28.8946C20.3787 29.031 19.1916 29.2895 18.1229 29.6813L18.9491 31.9347C19.8004 31.6225 20.7893 31.401 21.9256 31.2814L21.6744 28.8946ZM18.1565 29.6696C17.0394 30.042 16.092 30.6304 15.4816 31.5224L17.4624 32.8776C17.684 32.5536 18.1126 32.214 18.9155 31.9464L18.1565 29.6696ZM15.4854 31.5169C15.0478 32.1489 14.84 32.8712 14.84 33.64H17.24C17.24 33.3208 17.3202 33.0831 17.4586 32.8831L15.4854 31.5169ZM14.84 33.64C14.84 34.4064 15.0454 35.1355 15.4261 35.8123L17.5179 34.6357C17.3226 34.2885 17.24 33.9616 17.24 33.64H14.84ZM15.4261 35.8123C15.8108 36.4962 16.342 37.0526 17.0393 37.4013L18.1127 35.2547C17.9141 35.1554 17.7092 34.9757 17.5179 34.6357L15.4261 35.8123ZM16.7275 37.1765C16.7264 37.1755 16.7188 37.1678 16.7069 37.1539C16.6957 37.1408 16.6745 37.115 16.6495 37.0776C16.6259 37.0422 16.587 36.9787 16.5518 36.8907C16.5176 36.8051 16.472 36.6595 16.472 36.472H18.872C18.872 36.0953 18.7023 35.8301 18.6465 35.7464C18.5692 35.6305 18.4847 35.5397 18.4245 35.4795L16.7275 37.1765ZM16.472 36.472C16.472 36.2337 16.5467 36.0506 16.608 35.9402C16.6681 35.8321 16.7318 35.7632 16.7635 35.7315C16.823 35.6719 16.8573 35.6574 16.8146 35.683L18.0494 37.741C18.1667 37.6706 18.321 37.5681 18.4605 37.4285C18.5665 37.3226 18.872 36.9926 18.872 36.472H16.472ZM16.8953 35.6387C16.9596 35.6066 17.0286 35.5868 17.0955 35.5793C17.1606 35.5721 17.2093 35.5781 17.2353 35.5833L16.7647 37.9367C17.1478 38.0133 17.5691 37.9851 17.9687 37.7853L16.8953 35.6387ZM17.636 35.7424C17.4711 35.6394 17.2136 35.4399 16.8509 35.1074L15.2291 36.8766C15.6344 37.2481 16.0169 37.5606 16.364 37.7776L17.636 35.7424ZM16.8885 35.1435C16.54 34.7949 16.2224 34.4338 15.9351 34.0603L14.0329 35.5237C14.3856 35.9822 14.772 36.4211 15.1915 36.8405L16.8885 35.1435ZM15.9706 34.1089C15.7104 33.7331 15.5905 33.4888 15.5464 33.3565L13.2696 34.1155C13.4175 34.5592 13.6816 35.0189 13.9974 35.4751L15.9706 34.1089ZM15.5464 33.3565C15.457 33.0882 15.416 32.8322 15.416 32.584H13.016C13.016 33.1038 13.103 33.6158 13.2696 34.1155L15.5464 33.3565ZM15.416 32.584C15.416 32.1374 15.5568 31.8493 15.8259 31.6118L14.2381 29.8122C13.4192 30.5347 13.016 31.4946 13.016 32.584H15.416ZM15.8002 31.6339C16.2206 31.2835 16.7965 30.9827 17.5697 30.7618L16.9103 28.4542C15.8915 28.7453 14.9954 29.1805 14.2638 29.7901L15.8002 31.6339ZM17.5697 30.7618C18.3876 30.5281 19.2742 30.3646 20.232 30.2748L20.008 27.8852C18.9178 27.9874 17.8844 28.1759 16.9103 28.4542L17.5697 30.7618ZM20.2644 30.2713C21.2775 30.1485 22.2371 30.088 23.144 30.088V27.688C22.1309 27.688 21.0745 27.7555 19.9756 27.8887L20.2644 30.2713ZM23.1827 30.0874C24.1666 30.0556 25.0009 30.04 25.688 30.04V27.64C24.9671 27.64 24.1054 27.6564 23.1053 27.6886L23.1827 30.0874ZM25.688 30.04H30.872V27.64H25.688V30.04ZM30.872 30.04C30.8427 30.04 30.6421 30.0427 30.4073 29.9253C30.273 29.8581 30.1001 29.7375 29.9635 29.5326C29.8219 29.3202 29.768 29.09 29.768 28.888H32.168C32.168 28.67 32.1101 28.4258 31.9605 28.2014C31.8159 27.9845 31.631 27.8539 31.4807 27.7787C31.2139 27.6453 30.9653 27.64 30.872 27.64V30.04ZM29.768 28.888C29.768 28.6833 29.8259 28.5337 29.8596 28.4615C29.8948 28.3861 29.9287 28.3417 29.9368 28.3313C29.9509 28.3131 29.9344 28.3375 29.8511 28.4089L31.4129 30.2311C31.5536 30.1105 31.7051 29.9669 31.8312 29.8047C31.924 29.6854 32.168 29.3543 32.168 28.888H29.768ZM29.8638 28.3981C29.7863 28.4627 29.7537 28.4838 29.756 28.4824C29.7571 28.4817 29.7896 28.461 29.8465 28.4373C29.8762 28.4249 29.9231 28.4073 29.984 28.3921C30.0433 28.3772 30.1345 28.36 30.248 28.36V30.76C30.4908 30.76 30.6795 30.6902 30.7695 30.6527C30.8744 30.609 30.9629 30.5583 31.028 30.5176C31.1583 30.4362 31.2857 30.3373 31.4002 30.2419L29.8638 28.3981ZM30.2052 28.3608C29.0073 28.4035 27.9409 28.8618 27.0408 29.6801L28.6552 31.4559C29.1631 30.9942 29.6967 30.7805 30.2908 30.7592L30.2052 28.3608ZM27.0204 29.699C26.2697 30.414 25.6133 31.2317 25.05 32.1471L27.094 33.4049C27.5547 32.6563 28.0823 32.002 28.6756 31.437L27.0204 29.699ZM25.043 32.1586C24.548 32.9837 24.1286 33.754 23.7886 34.4681L25.9554 35.4999C26.2554 34.87 26.636 34.1683 27.101 33.3934L25.043 32.1586ZM23.7987 34.4473C23.6024 34.84 23.295 35.4709 22.8788 36.3354L25.0412 37.3766C25.457 36.5131 25.7576 35.896 25.9453 35.5207L23.7987 34.4473ZM22.8704 36.3531C22.4829 37.1928 22.0481 38.1591 21.5661 39.2516L23.7619 40.2204C24.2399 39.1368 24.6691 38.1832 25.0496 37.3589L22.8704 36.3531ZM21.5593 39.2673C21.1153 40.3139 20.6554 41.3606 20.1796 42.4074L22.3644 43.4006C22.8486 42.3354 23.3167 41.2701 23.7687 40.2047L21.5593 39.2673ZM20.1673 42.4353C19.7223 43.4843 19.327 44.3853 18.9811 45.14L21.1629 46.14C21.521 45.3587 21.9257 44.4357 22.3767 43.3727L20.1673 42.4353ZM18.9709 45.1629C18.14 47.0805 17.3572 48.8697 16.6226 50.5306L18.8174 51.5014C19.5548 49.8343 20.34 48.0395 21.1731 46.1171L18.9709 45.1629ZM16.6181 50.5407C15.934 52.1266 15.1741 53.6149 14.339 55.0066L16.397 56.2414C17.2899 54.7531 18.098 53.1694 18.8219 51.4913L16.6181 50.5407ZM14.339 55.0066C13.5228 56.367 12.5031 57.7088 11.2734 59.0307L13.0306 60.6653C14.3609 59.2352 15.4852 57.761 16.397 56.2414L14.339 55.0066ZM11.2715 59.0327C10.5836 59.7757 9.69781 60.4295 8.59134 60.9827L9.66466 63.1293C10.9902 62.4665 12.1204 61.6483 13.0325 60.6633L11.2715 59.0327ZM8.58042 60.9882C7.46006 61.5628 6.46356 61.816 5.576 61.816V64.216C6.92844 64.216 8.29994 63.8292 9.67558 63.1238L8.58042 60.9882Z" fill="#FF7A00"/>
<path d="M40.78 48.3C39.78 48.3 39.02 47.96 38.5 47.28C38.18 46.8 37.86 46.08 37.54 45.12C37.22 44.16 36.94 43.16 36.7 42.12C36.46 41.08 36.26 40.24 36.1 39.6C34.98 41.04 33.98 42.48 33.1 43.92C32.26 45.36 31.7 46.48 31.42 47.28C31.34 47.52 31.06 47.72 30.58 47.88C30.14 48.04 29.7 48.12 29.26 48.12C28.62 48.12 28.38 47.92 28.54 47.52C29.78 44.76 30.96 42.1 32.08 39.54C33.2 36.98 34.38 34.4 35.62 31.8C36.9 29.2 38.34 26.5 39.94 23.7C41.06 21.66 42.4 19.7 43.96 17.82C45.56 15.9 47.26 14.34 49.06 13.14C50.86 11.9 52.68 11.28 54.52 11.28C55.12 11.28 55.68 11.44 56.2 11.76C56.72 12.08 56.98 12.58 56.98 13.26V15C56.98 15.16 56.86 15.24 56.62 15.24C56.5 15.24 56.44 15.2 56.44 15.12C56.44 14.48 56.16 14.06 55.6 13.86C55.04 13.62 54.5 13.5 53.98 13.5C52.58 13.5 51.16 13.78 49.72 14.34C48.12 14.98 46.78 15.94 45.7 17.22C44.62 18.5 43.62 19.86 42.7 21.3C41.5 23.14 40.32 25.3 39.16 27.78C38 30.22 36.92 32.68 35.92 35.16C34.96 37.64 34.1 39.88 33.34 41.88C33.78 41.32 34.22 40.76 34.66 40.2C35.1 39.64 35.52 39.12 35.92 38.64C35.92 38.56 35.9 38.48 35.86 38.4C35.86 38.32 35.86 38.24 35.86 38.16C35.86 37.88 35.92 37.64 36.04 37.44C36.16 37.24 36.32 37 36.52 36.72C36.8 36.32 37.06 36.02 37.3 35.82C37.54 35.58 37.8 35.28 38.08 34.92L38.26 35.94C40.02 34.14 41.56 32.84 42.88 32.04C43.8 31.48 44.7 31.2 45.58 31.2C46.46 31.2 46.9 31.54 46.9 32.22C46.9 32.78 46.62 33.48 46.06 34.32C45.86 34.6 45.74 34.8 45.7 34.92C45.66 35.04 45.58 35.16 45.46 35.28C45.42 35.32 45.34 35.32 45.22 35.28C45.1 35.24 45.04 35.18 45.04 35.1C45.04 34.62 44.88 34.32 44.56 34.2C44.24 34.04 43.88 33.96 43.48 33.96C42.72 33.96 41.9 34.24 41.02 34.8C40.18 35.32 39.32 36.04 38.44 36.96C38.64 37.96 38.86 39.06 39.1 40.26C39.38 41.42 39.68 42.5 40 43.5C40.32 44.5 40.62 45.24 40.9 45.72C41.1 46.04 41.38 46.26 41.74 46.38C42.1 46.46 42.4 46.5 42.64 46.5C43.2 46.5 43.84 46.22 44.56 45.66C45.32 45.06 46.08 44.36 46.84 43.56C47.64 42.72 48.36 41.9 49 41.1C49.68 40.3 50.2 39.66 50.56 39.18C50.72 39.38 50.76 39.58 50.68 39.78C50.64 40.02 50.52 40.28 50.32 40.56C50.16 40.8 50 41.02 49.84 41.22C49.04 42.22 48.18 43.24 47.26 44.28C46.34 45.28 45.36 46.18 44.32 46.98C43.88 47.34 43.34 47.66 42.7 47.94C42.06 48.18 41.42 48.3 40.78 48.3Z" fill="#FF7A00"/>
<path d="M38.5 47.28L37.5015 47.9456L37.5231 47.978L37.5468 48.0089L38.5 47.28ZM37.54 45.12L36.4016 45.4995L36.4016 45.4995L37.54 45.12ZM36.1 39.6L37.2642 39.309L36.6663 36.9174L35.1528 38.8633L36.1 39.6ZM33.1 43.92L32.0761 43.2943L32.0697 43.3047L32.0635 43.3154L33.1 43.92ZM31.42 47.28L30.2874 46.8836L30.2844 46.892L30.2816 46.9005L31.42 47.28ZM30.58 47.88L30.2005 46.7416L30.1851 46.7467L30.1699 46.7522L30.58 47.88ZM28.54 47.52L27.4454 47.0282L27.4351 47.0511L27.4258 47.0743L28.54 47.52ZM32.08 39.54L33.1794 40.021L33.1794 40.021L32.08 39.54ZM35.62 31.8L34.5434 31.27L34.5401 31.2767L34.5369 31.2834L35.62 31.8ZM39.94 23.7L40.9819 24.2954L40.987 24.2865L40.9919 24.2775L39.94 23.7ZM43.96 17.82L43.0381 17.0518L43.0365 17.0537L43.96 17.82ZM49.06 13.14L49.7256 14.1385L49.7332 14.1334L49.7408 14.1282L49.06 13.14ZM56.2 11.76L56.8289 10.738L56.8289 10.738L56.2 11.76ZM55.6 13.86L55.1273 14.963L55.1614 14.9776L55.1964 14.9901L55.6 13.86ZM49.72 14.34L49.285 13.2215L49.2743 13.2258L49.72 14.34ZM45.7 17.22L46.6172 17.9938L46.6172 17.9938L45.7 17.22ZM42.7 21.3L43.7052 21.9555L43.7112 21.9461L42.7 21.3ZM39.16 27.78L40.2438 28.2952L40.247 28.2884L39.16 27.78ZM35.92 35.16L34.8071 34.7112L34.8039 34.719L34.8009 34.7268L35.92 35.16ZM33.34 41.88L32.2183 41.4537L34.2836 42.6214L33.34 41.88ZM34.66 40.2L35.6036 40.9414L35.6036 40.9414L34.66 40.2ZM35.92 38.64L36.8419 39.4082L37.12 39.0745V38.64H35.92ZM35.86 38.4H34.66V38.6833L34.7867 38.9366L35.86 38.4ZM36.04 37.44L35.011 36.8226L35.011 36.8226L36.04 37.44ZM36.52 36.72L37.4965 37.4175L37.5031 37.4082L36.52 36.72ZM37.3 35.82L38.0682 36.7419L38.11 36.707L38.1485 36.6685L37.3 35.82ZM38.08 34.92L39.2617 34.7115L38.7921 32.0499L37.1328 34.1833L38.08 34.92ZM38.26 35.94L37.0783 36.1485L37.4844 38.4497L39.118 36.7789L38.26 35.94ZM42.88 32.04L43.502 33.0662L43.5039 33.065L42.88 32.04ZM46.06 34.32L47.0365 35.0175L47.0477 35.0017L47.0585 34.9856L46.06 34.32ZM45.7 34.92L46.8384 35.2995L46.8384 35.2995L45.7 34.92ZM45.46 35.28L44.6115 34.4315L44.6115 34.4315L45.46 35.28ZM45.22 35.28L44.8405 36.4184L44.8405 36.4184L45.22 35.28ZM44.56 34.2L44.0233 35.2733L44.0797 35.3015L44.1387 35.3236L44.56 34.2ZM41.02 34.8L41.6516 35.8203L41.658 35.8164L41.6643 35.8124L41.02 34.8ZM38.44 36.96L37.5728 36.1305L37.1407 36.5823L37.2633 37.1953L38.44 36.96ZM39.1 40.26L37.9233 40.4953L37.9279 40.5186L37.9335 40.5416L39.1 40.26ZM40 43.5L41.1429 43.1343L41.1429 43.1343L40 43.5ZM40.9 45.72L39.8635 46.3246L39.8727 46.3405L39.8824 46.356L40.9 45.72ZM41.74 46.38L41.3605 47.5184L41.4193 47.538L41.4797 47.5514L41.74 46.38ZM44.56 45.66L45.2967 46.6072L45.3036 46.6019L44.56 45.66ZM46.84 43.56L45.971 42.7324L45.97 42.7335L46.84 43.56ZM49 41.1L48.0857 40.3228L48.0741 40.3364L48.063 40.3504L49 41.1ZM50.56 39.18L51.497 38.4304L50.5294 37.2208L49.6 38.46L50.56 39.18ZM50.68 39.78L49.5658 39.3343L49.5177 39.4548L49.4963 39.5827L50.68 39.78ZM50.32 40.56L49.3435 39.8625L49.3323 39.8783L49.3215 39.8944L50.32 40.56ZM49.84 41.22L48.903 40.4704L48.903 40.4704L49.84 41.22ZM47.26 44.28L48.1431 45.0925L48.151 45.0839L48.1588 45.0751L47.26 44.28ZM44.32 46.98L43.5883 46.0289L43.5741 46.0398L43.5601 46.0513L44.32 46.98ZM42.7 47.94L43.1213 49.0636L43.1515 49.0523L43.181 49.0394L42.7 47.94ZM40.78 47.1C40.0828 47.1 39.7063 46.882 39.4532 46.5511L37.5468 48.0089C38.3337 49.038 39.4772 49.5 40.78 49.5V47.1ZM39.4985 46.6144C39.2659 46.2656 38.986 45.6631 38.6784 44.7405L36.4016 45.4995C36.734 46.4969 37.0941 47.3344 37.5015 47.9456L39.4985 46.6144ZM38.6784 44.7405C38.3711 43.8185 38.1012 42.8552 37.8693 41.8502L35.5307 42.3898C35.7788 43.4648 36.0689 44.5015 36.4016 45.4995L38.6784 44.7405ZM37.8693 41.8502C37.6285 40.8068 37.4267 39.9589 37.2642 39.309L34.9358 39.891C35.0933 40.5211 35.2915 41.3532 35.5307 42.3898L37.8693 41.8502ZM35.1528 38.8633C34.0073 40.336 32.9813 41.8129 32.0761 43.2943L34.1239 44.5457C34.9787 43.1471 35.9527 41.744 37.0472 40.3367L35.1528 38.8633ZM32.0635 43.3154C31.2143 44.7711 30.6066 45.9716 30.2874 46.8836L32.5526 47.6764C32.7934 46.9884 33.3057 45.9489 34.1365 44.5246L32.0635 43.3154ZM30.2816 46.9005C30.3131 46.806 30.3577 46.7367 30.3938 46.6926C30.4113 46.6712 30.4264 46.6562 30.4365 46.6469C30.4416 46.6423 30.4456 46.6389 30.4483 46.6368C30.451 46.6346 30.4524 46.6336 30.4525 46.6335C30.4525 46.6335 30.4477 46.6369 30.4369 46.6432C30.426 46.6494 30.4103 46.6578 30.3888 46.668C30.3451 46.6887 30.2836 46.7139 30.2005 46.7416L30.9595 49.0184C31.2648 48.9166 31.576 48.7804 31.8475 48.5865C32.1208 48.3912 32.4139 48.0931 32.5584 47.6595L30.2816 46.9005ZM30.1699 46.7522C29.8529 46.8675 29.5514 46.92 29.26 46.92V49.32C29.8486 49.32 30.4271 49.2125 30.9901 49.0078L30.1699 46.7522ZM29.26 46.92C29.1555 46.92 29.1159 46.9112 29.1209 46.9123C29.1256 46.9134 29.1523 46.9197 29.1931 46.9377C29.2342 46.9559 29.2978 46.9895 29.3682 47.0481C29.5311 47.1839 29.6533 47.3902 29.6845 47.6239C29.7109 47.822 29.6602 47.9505 29.6542 47.9657L27.4258 47.0743C27.3398 47.2895 27.2591 47.593 27.3055 47.9411C27.3567 48.3248 27.5489 48.6561 27.8318 48.8919C28.3013 49.2831 28.9056 49.32 29.26 49.32V46.92ZM29.6346 48.0118C30.8761 45.2485 32.0577 42.5849 33.1794 40.021L30.9806 39.059C29.8623 41.6151 28.6839 44.2715 27.4454 47.0282L29.6346 48.0118ZM33.1794 40.021C34.294 37.4733 35.4686 34.9052 36.7031 32.3166L34.5369 31.2834C33.2914 33.8948 32.106 36.4867 30.9806 39.059L33.1794 40.021ZM36.6966 32.33C37.9646 29.7545 39.3928 27.0763 40.9819 24.2954L38.8981 23.1046C37.2872 25.9237 35.8354 28.6455 34.5434 31.27L36.6966 32.33ZM40.9919 24.2775C42.0734 22.3076 43.3698 20.4105 44.8835 18.5863L43.0365 17.0537C41.4302 18.9895 40.0466 21.0124 38.8881 23.1225L40.9919 24.2775ZM44.8819 18.5882C46.4192 16.7434 48.0352 15.2654 49.7256 14.1385L48.3944 12.1415C46.4848 13.4146 44.7008 15.0566 43.0381 17.0518L44.8819 18.5882ZM49.7408 14.1282C51.379 12.9997 52.966 12.48 54.52 12.48V10.08C52.394 10.08 50.341 10.8003 48.3792 12.1518L49.7408 14.1282ZM54.52 12.48C54.8938 12.48 55.2367 12.5762 55.5711 12.782L56.8289 10.738C56.1233 10.3038 55.3462 10.08 54.52 10.08V12.48ZM55.5711 12.782C55.6905 12.8555 55.78 12.9402 55.78 13.26H58.18C58.18 12.2198 57.7495 11.3045 56.8289 10.738L55.5711 12.782ZM55.78 13.26V15H58.18V13.26H55.78ZM55.78 15C55.78 14.8893 55.8013 14.7341 55.8842 14.5683C55.9696 14.3976 56.0941 14.2684 56.2244 14.1815C56.3467 14.1 56.456 14.0672 56.5172 14.0536C56.5788 14.0399 56.6171 14.04 56.62 14.04V16.44C56.8354 16.44 57.2069 16.411 57.5556 16.1785C57.9903 15.8887 58.18 15.4296 58.18 15H55.78ZM56.62 14.04C56.6554 14.04 56.8919 14.039 57.1507 14.2115C57.296 14.3084 57.4317 14.4501 57.5246 14.6359C57.615 14.8166 57.64 14.9893 57.64 15.12H55.24C55.24 15.5096 55.4147 15.9387 55.8194 16.2085C56.1381 16.421 56.4646 16.44 56.62 16.44V14.04ZM57.64 15.12C57.64 14.6264 57.5311 14.1133 57.2285 13.6594C56.921 13.1982 56.482 12.9007 56.0036 12.7299L55.1964 14.9901C55.241 15.006 55.2564 15.0178 55.2549 15.0167C55.2518 15.0145 55.2413 15.0053 55.2315 14.9906C55.2222 14.9766 55.2232 14.9721 55.2273 14.9877C55.2319 15.0052 55.24 15.0466 55.24 15.12H57.64ZM56.0727 12.757C55.3887 12.4639 54.688 12.3 53.98 12.3V14.7C54.312 14.7 54.6914 14.7761 55.1273 14.963L56.0727 12.757ZM53.98 12.3C52.4165 12.3 50.8494 12.6133 49.2851 13.2216L50.1549 15.4584C51.4706 14.9467 52.7435 14.7 53.98 14.7V12.3ZM49.2743 13.2258C47.4971 13.9367 45.9935 15.0113 44.7829 16.4462L46.6172 17.9938C47.5665 16.8687 48.7429 16.0233 50.1657 15.4542L49.2743 13.2258ZM44.7829 16.4462C43.668 17.7674 42.6367 19.1702 41.6888 20.6539L43.7112 21.9461C44.6033 20.5498 45.572 19.2326 46.6172 17.9938L44.7829 16.4462ZM41.6949 20.6445C40.4578 22.5413 39.2513 24.7525 38.073 27.2716L40.247 28.2884C41.3887 25.8475 42.5422 23.7387 43.7051 21.9555L41.6949 20.6445ZM38.0762 27.2648C36.906 29.7264 35.8162 32.2086 34.8071 34.7112L37.0329 35.6088C38.0238 33.1514 39.094 30.7136 40.2438 28.2952L38.0762 27.2648ZM34.8009 34.7268C33.8402 37.2086 32.9793 39.451 32.2183 41.4537L34.4617 42.3063C35.2207 40.309 36.0798 38.0714 37.0391 35.5932L34.8009 34.7268ZM34.2836 42.6214C34.7236 42.0614 35.1636 41.5014 35.6036 40.9414L33.7164 39.4586C33.2764 40.0186 32.8364 40.5786 32.3964 41.1386L34.2836 42.6214ZM35.6036 40.9414C36.0374 40.3892 36.4502 39.8783 36.8419 39.4082L34.9981 37.8718C34.5898 38.3617 34.1626 38.8908 33.7164 39.4586L35.6036 40.9414ZM37.12 38.64C37.12 38.3527 37.0467 38.0901 36.9333 37.8633L34.7867 38.9366C34.7533 38.8699 34.72 38.7673 34.72 38.64H37.12ZM37.06 38.4C37.06 38.3998 37.06 38.3997 37.06 38.3995C37.06 38.3994 37.06 38.3992 37.06 38.3991C37.06 38.3989 37.06 38.3987 37.06 38.3986C37.06 38.3984 37.06 38.3983 37.06 38.3981C37.06 38.398 37.06 38.3978 37.06 38.3977C37.06 38.3975 37.06 38.3973 37.06 38.3972C37.06 38.397 37.06 38.3969 37.06 38.3967C37.06 38.3966 37.06 38.3964 37.06 38.3962C37.06 38.3961 37.06 38.3959 37.06 38.3958C37.06 38.3956 37.06 38.3955 37.06 38.3953C37.06 38.3952 37.06 38.395 37.06 38.3948C37.06 38.3947 37.06 38.3945 37.06 38.3944C37.06 38.3942 37.06 38.3941 37.06 38.3939C37.06 38.3937 37.06 38.3936 37.06 38.3934C37.06 38.3933 37.06 38.3931 37.06 38.393C37.06 38.3928 37.06 38.3927 37.06 38.3925C37.06 38.3923 37.06 38.3922 37.06 38.392C37.06 38.3919 37.06 38.3917 37.06 38.3916C37.06 38.3914 37.06 38.3912 37.06 38.3911C37.06 38.3909 37.06 38.3908 37.06 38.3906C37.06 38.3905 37.06 38.3903 37.06 38.3902C37.06 38.39 37.06 38.3898 37.06 38.3897C37.06 38.3895 37.06 38.3894 37.06 38.3892C37.06 38.3891 37.06 38.3889 37.06 38.3887C37.06 38.3886 37.06 38.3884 37.06 38.3883C37.06 38.3881 37.06 38.388 37.06 38.3878C37.06 38.3877 37.06 38.3875 37.06 38.3873C37.06 38.3872 37.06 38.387 37.06 38.3869C37.06 38.3867 37.06 38.3866 37.06 38.3864C37.06 38.3862 37.06 38.3861 37.06 38.3859C37.06 38.3858 37.06 38.3856 37.06 38.3855C37.06 38.3853 37.06 38.3852 37.06 38.385C37.06 38.3848 37.06 38.3847 37.06 38.3845C37.06 38.3844 37.06 38.3842 37.06 38.3841C37.06 38.3839 37.06 38.3837 37.06 38.3836C37.06 38.3834 37.06 38.3833 37.06 38.3831C37.06 38.383 37.06 38.3828 37.06 38.3827C37.06 38.3825 37.06 38.3823 37.06 38.3822C37.06 38.382 37.06 38.3819 37.06 38.3817C37.06 38.3816 37.06 38.3814 37.06 38.3812C37.06 38.3811 37.06 38.3809 37.06 38.3808C37.06 38.3806 37.06 38.3805 37.06 38.3803C37.06 38.3802 37.06 38.38 37.06 38.3798C37.06 38.3797 37.06 38.3795 37.06 38.3794C37.06 38.3792 37.06 38.3791 37.06 38.3789C37.06 38.3787 37.06 38.3786 37.06 38.3784C37.06 38.3783 37.06 38.3781 37.06 38.378C37.06 38.3778 37.06 38.3777 37.06 38.3775C37.06 38.3773 37.06 38.3772 37.06 38.377C37.06 38.3769 37.06 38.3767 37.06 38.3766C37.06 38.3764 37.06 38.3762 37.06 38.3761C37.06 38.3759 37.06 38.3758 37.06 38.3756C37.06 38.3755 37.06 38.3753 37.06 38.3752C37.06 38.375 37.06 38.3748 37.06 38.3747C37.06 38.3745 37.06 38.3744 37.06 38.3742C37.06 38.3741 37.06 38.3739 37.06 38.3737C37.06 38.3736 37.06 38.3734 37.06 38.3733C37.06 38.3731 37.06 38.373 37.06 38.3728C37.06 38.3727 37.06 38.3725 37.06 38.3723C37.06 38.3722 37.06 38.372 37.06 38.3719C37.06 38.3717 37.06 38.3716 37.06 38.3714C37.06 38.3712 37.06 38.3711 37.06 38.3709C37.06 38.3708 37.06 38.3706 37.06 38.3705C37.06 38.3703 37.06 38.3702 37.06 38.37C37.06 38.3698 37.06 38.3697 37.06 38.3695C37.06 38.3694 37.06 38.3692 37.06 38.3691C37.06 38.3689 37.06 38.3687 37.06 38.3686C37.06 38.3684 37.06 38.3683 37.06 38.3681C37.06 38.368 37.06 38.3678 37.06 38.3677C37.06 38.3675 37.06 38.3673 37.06 38.3672C37.06 38.367 37.06 38.3669 37.06 38.3667C37.06 38.3666 37.06 38.3664 37.06 38.3662C37.06 38.3661 37.06 38.3659 37.06 38.3658C37.06 38.3656 37.06 38.3655 37.06 38.3653C37.06 38.3652 37.06 38.365 37.06 38.3648C37.06 38.3647 37.06 38.3645 37.06 38.3644C37.06 38.3642 37.06 38.3641 37.06 38.3639C37.06 38.3637 37.06 38.3636 37.06 38.3634C37.06 38.3633 37.06 38.3631 37.06 38.363C37.06 38.3628 37.06 38.3627 37.06 38.3625C37.06 38.3623 37.06 38.3622 37.06 38.362C37.06 38.3619 37.06 38.3617 37.06 38.3616C37.06 38.3614 37.06 38.3612 37.06 38.3611C37.06 38.3609 37.06 38.3608 37.06 38.3606C37.06 38.3605 37.06 38.3603 37.06 38.3602C37.06 38.36 37.06 38.3598 37.06 38.3597C37.06 38.3595 37.06 38.3594 37.06 38.3592C37.06 38.3591 37.06 38.3589 37.06 38.3587C37.06 38.3586 37.06 38.3584 37.06 38.3583C37.06 38.3581 37.06 38.358 37.06 38.3578C37.06 38.3577 37.06 38.3575 37.06 38.3573C37.06 38.3572 37.06 38.357 37.06 38.3569C37.06 38.3567 37.06 38.3566 37.06 38.3564C37.06 38.3562 37.06 38.3561 37.06 38.3559C37.06 38.3558 37.06 38.3556 37.06 38.3555C37.06 38.3553 37.06 38.3552 37.06 38.355C37.06 38.3548 37.06 38.3547 37.06 38.3545C37.06 38.3544 37.06 38.3542 37.06 38.3541C37.06 38.3539 37.06 38.3537 37.06 38.3536C37.06 38.3534 37.06 38.3533 37.06 38.3531C37.06 38.353 37.06 38.3528 37.06 38.3527C37.06 38.3525 37.06 38.3523 37.06 38.3522C37.06 38.352 37.06 38.3519 37.06 38.3517C37.06 38.3516 37.06 38.3514 37.06 38.3512C37.06 38.3511 37.06 38.3509 37.06 38.3508C37.06 38.3506 37.06 38.3505 37.06 38.3503C37.06 38.3502 37.06 38.35 37.06 38.3498C37.06 38.3497 37.06 38.3495 37.06 38.3494C37.06 38.3492 37.06 38.3491 37.06 38.3489C37.06 38.3487 37.06 38.3486 37.06 38.3484C37.06 38.3483 37.06 38.3481 37.06 38.348C37.06 38.3478 37.06 38.3477 37.06 38.3475C37.06 38.3473 37.06 38.3472 37.06 38.347C37.06 38.3469 37.06 38.3467 37.06 38.3466C37.06 38.3464 37.06 38.3462 37.06 38.3461C37.06 38.3459 37.06 38.3458 37.06 38.3456C37.06 38.3455 37.06 38.3453 37.06 38.3452C37.06 38.345 37.06 38.3448 37.06 38.3447C37.06 38.3445 37.06 38.3444 37.06 38.3442C37.06 38.3441 37.06 38.3439 37.06 38.3437C37.06 38.3436 37.06 38.3434 37.06 38.3433C37.06 38.3431 37.06 38.343 37.06 38.3428C37.06 38.3427 37.06 38.3425 37.06 38.3423C37.06 38.3422 37.06 38.342 37.06 38.3419C37.06 38.3417 37.06 38.3416 37.06 38.3414C37.06 38.3412 37.06 38.3411 37.06 38.3409C37.06 38.3408 37.06 38.3406 37.06 38.3405C37.06 38.3403 37.06 38.3402 37.06 38.34C37.06 38.3398 37.06 38.3397 37.06 38.3395C37.06 38.3394 37.06 38.3392 37.06 38.3391C37.06 38.3389 37.06 38.3387 37.06 38.3386C37.06 38.3384 37.06 38.3383 37.06 38.3381C37.06 38.338 37.06 38.3378 37.06 38.3377C37.06 38.3375 37.06 38.3373 37.06 38.3372C37.06 38.337 37.06 38.3369 37.06 38.3367C37.06 38.3366 37.06 38.3364 37.06 38.3362C37.06 38.3361 37.06 38.3359 37.06 38.3358C37.06 38.3356 37.06 38.3355 37.06 38.3353C37.06 38.3352 37.06 38.335 37.06 38.3348C37.06 38.3347 37.06 38.3345 37.06 38.3344C37.06 38.3342 37.06 38.3341 37.06 38.3339C37.06 38.3337 37.06 38.3336 37.06 38.3334C37.06 38.3333 37.06 38.3331 37.06 38.333C37.06 38.3328 37.06 38.3327 37.06 38.3325C37.06 38.3323 37.06 38.3322 37.06 38.332C37.06 38.3319 37.06 38.3317 37.06 38.3316C37.06 38.3314 37.06 38.3312 37.06 38.3311C37.06 38.3309 37.06 38.3308 37.06 38.3306C37.06 38.3305 37.06 38.3303 37.06 38.3302C37.06 38.33 37.06 38.3298 37.06 38.3297C37.06 38.3295 37.06 38.3294 37.06 38.3292C37.06 38.3291 37.06 38.3289 37.06 38.3287C37.06 38.3286 37.06 38.3284 37.06 38.3283C37.06 38.3281 37.06 38.328 37.06 38.3278C37.06 38.3277 37.06 38.3275 37.06 38.3273C37.06 38.3272 37.06 38.327 37.06 38.3269C37.06 38.3267 37.06 38.3266 37.06 38.3264C37.06 38.3262 37.06 38.3261 37.06 38.3259C37.06 38.3258 37.06 38.3256 37.06 38.3255C37.06 38.3253 37.06 38.3252 37.06 38.325C37.06 38.3248 37.06 38.3247 37.06 38.3245C37.06 38.3244 37.06 38.3242 37.06 38.3241C37.06 38.3239 37.06 38.3237 37.06 38.3236C37.06 38.3234 37.06 38.3233 37.06 38.3231C37.06 38.323 37.06 38.3228 37.06 38.3227C37.06 38.3225 37.06 38.3223 37.06 38.3222C37.06 38.322 37.06 38.3219 37.06 38.3217C37.06 38.3216 37.06 38.3214 37.06 38.3212C37.06 38.3211 37.06 38.3209 37.06 38.3208C37.06 38.3206 37.06 38.3205 37.06 38.3203C37.06 38.3202 37.06 38.32 37.06 38.3198C37.06 38.3197 37.06 38.3195 37.06 38.3194C37.06 38.3192 37.06 38.3191 37.06 38.3189C37.06 38.3187 37.06 38.3186 37.06 38.3184C37.06 38.3183 37.06 38.3181 37.06 38.318C37.06 38.3178 37.06 38.3177 37.06 38.3175C37.06 38.3173 37.06 38.3172 37.06 38.317C37.06 38.3169 37.06 38.3167 37.06 38.3166C37.06 38.3164 37.06 38.3162 37.06 38.3161C37.06 38.3159 37.06 38.3158 37.06 38.3156C37.06 38.3155 37.06 38.3153 37.06 38.3152C37.06 38.315 37.06 38.3148 37.06 38.3147C37.06 38.3145 37.06 38.3144 37.06 38.3142C37.06 38.3141 37.06 38.3139 37.06 38.3137C37.06 38.3136 37.06 38.3134 37.06 38.3133C37.06 38.3131 37.06 38.313 37.06 38.3128C37.06 38.3127 37.06 38.3125 37.06 38.3123C37.06 38.3122 37.06 38.312 37.06 38.3119C37.06 38.3117 37.06 38.3116 37.06 38.3114C37.06 38.3112 37.06 38.3111 37.06 38.3109C37.06 38.3108 37.06 38.3106 37.06 38.3105C37.06 38.3103 37.06 38.3102 37.06 38.31C37.06 38.3098 37.06 38.3097 37.06 38.3095C37.06 38.3094 37.06 38.3092 37.06 38.3091C37.06 38.3089 37.06 38.3087 37.06 38.3086C37.06 38.3084 37.06 38.3083 37.06 38.3081C37.06 38.308 37.06 38.3078 37.06 38.3077C37.06 38.3075 37.06 38.3073 37.06 38.3072C37.06 38.307 37.06 38.3069 37.06 38.3067C37.06 38.3066 37.06 38.3064 37.06 38.3062C37.06 38.3061 37.06 38.3059 37.06 38.3058C37.06 38.3056 37.06 38.3055 37.06 38.3053C37.06 38.3052 37.06 38.305 37.06 38.3048C37.06 38.3047 37.06 38.3045 37.06 38.3044C37.06 38.3042 37.06 38.3041 37.06 38.3039C37.06 38.3037 37.06 38.3036 37.06 38.3034C37.06 38.3033 37.06 38.3031 37.06 38.303C37.06 38.3028 37.06 38.3027 37.06 38.3025C37.06 38.3023 37.06 38.3022 37.06 38.302C37.06 38.3019 37.06 38.3017 37.06 38.3016C37.06 38.3014 37.06 38.3012 37.06 38.3011C37.06 38.3009 37.06 38.3008 37.06 38.3006C37.06 38.3005 37.06 38.3003 37.06 38.3002C37.06 38.3 37.06 38.2998 37.06 38.2997C37.06 38.2995 37.06 38.2994 37.06 38.2992C37.06 38.2991 37.06 38.2989 37.06 38.2987C37.06 38.2986 37.06 38.2984 37.06 38.2983C37.06 38.2981 37.06 38.298 37.06 38.2978C37.06 38.2977 37.06 38.2975 37.06 38.2973C37.06 38.2972 37.06 38.297 37.06 38.2969C37.06 38.2967 37.06 38.2966 37.06 38.2964C37.06 38.2962 37.06 38.2961 37.06 38.2959C37.06 38.2958 37.06 38.2956 37.06 38.2955C37.06 38.2953 37.06 38.2952 37.06 38.295C37.06 38.2948 37.06 38.2947 37.06 38.2945C37.06 38.2944 37.06 38.2942 37.06 38.2941C37.06 38.2939 37.06 38.2937 37.06 38.2936C37.06 38.2934 37.06 38.2933 37.06 38.2931C37.06 38.293 37.06 38.2928 37.06 38.2927C37.06 38.2925 37.06 38.2923 37.06 38.2922C37.06 38.292 37.06 38.2919 37.06 38.2917C37.06 38.2916 37.06 38.2914 37.06 38.2912C37.06 38.2911 37.06 38.2909 37.06 38.2908C37.06 38.2906 37.06 38.2905 37.06 38.2903C37.06 38.2902 37.06 38.29 37.06 38.2898C37.06 38.2897 37.06 38.2895 37.06 38.2894C37.06 38.2892 37.06 38.2891 37.06 38.2889C37.06 38.2887 37.06 38.2886 37.06 38.2884C37.06 38.2883 37.06 38.2881 37.06 38.288C37.06 38.2878 37.06 38.2877 37.06 38.2875C37.06 38.2873 37.06 38.2872 37.06 38.287C37.06 38.2869 37.06 38.2867 37.06 38.2866C37.06 38.2864 37.06 38.2862 37.06 38.2861C37.06 38.2859 37.06 38.2858 37.06 38.2856C37.06 38.2855 37.06 38.2853 37.06 38.2852C37.06 38.285 37.06 38.2848 37.06 38.2847C37.06 38.2845 37.06 38.2844 37.06 38.2842C37.06 38.2841 37.06 38.2839 37.06 38.2837C37.06 38.2836 37.06 38.2834 37.06 38.2833C37.06 38.2831 37.06 38.283 37.06 38.2828C37.06 38.2827 37.06 38.2825 37.06 38.2823C37.06 38.2822 37.06 38.282 37.06 38.2819C37.06 38.2817 37.06 38.2816 37.06 38.2814C37.06 38.2812 37.06 38.2811 37.06 38.2809C37.06 38.2808 37.06 38.2806 37.06 38.2805C37.06 38.2803 37.06 38.2802 37.06 38.28C37.06 38.2798 37.06 38.2797 37.06 38.2795C37.06 38.2794 37.06 38.2792 37.06 38.2791C37.06 38.2789 37.06 38.2787 37.06 38.2786C37.06 38.2784 37.06 38.2783 37.06 38.2781C37.06 38.278 37.06 38.2778 37.06 38.2777C37.06 38.2775 37.06 38.2773 37.06 38.2772C37.06 38.277 37.06 38.2769 37.06 38.2767C37.06 38.2766 37.06 38.2764 37.06 38.2762C37.06 38.2761 37.06 38.2759 37.06 38.2758C37.06 38.2756 37.06 38.2755 37.06 38.2753C37.06 38.2752 37.06 38.275 37.06 38.2748C37.06 38.2747 37.06 38.2745 37.06 38.2744C37.06 38.2742 37.06 38.2741 37.06 38.2739C37.06 38.2737 37.06 38.2736 37.06 38.2734C37.06 38.2733 37.06 38.2731 37.06 38.273C37.06 38.2728 37.06 38.2727 37.06 38.2725C37.06 38.2723 37.06 38.2722 37.06 38.272C37.06 38.2719 37.06 38.2717 37.06 38.2716C37.06 38.2714 37.06 38.2712 37.06 38.2711C37.06 38.2709 37.06 38.2708 37.06 38.2706C37.06 38.2705 37.06 38.2703 37.06 38.2702C37.06 38.27 37.06 38.2698 37.06 38.2697C37.06 38.2695 37.06 38.2694 37.06 38.2692C37.06 38.2691 37.06 38.2689 37.06 38.2687C37.06 38.2686 37.06 38.2684 37.06 38.2683C37.06 38.2681 37.06 38.268 37.06 38.2678C37.06 38.2677 37.06 38.2675 37.06 38.2673C37.06 38.2672 37.06 38.267 37.06 38.2669C37.06 38.2667 37.06 38.2666 37.06 38.2664C37.06 38.2662 37.06 38.2661 37.06 38.2659C37.06 38.2658 37.06 38.2656 37.06 38.2655C37.06 38.2653 37.06 38.2652 37.06 38.265C37.06 38.2648 37.06 38.2647 37.06 38.2645C37.06 38.2644 37.06 38.2642 37.06 38.2641C37.06 38.2639 37.06 38.2637 37.06 38.2636C37.06 38.2634 37.06 38.2633 37.06 38.2631C37.06 38.263 37.06 38.2628 37.06 38.2627C37.06 38.2625 37.06 38.2623 37.06 38.2622C37.06 38.262 37.06 38.2619 37.06 38.2617C37.06 38.2616 37.06 38.2614 37.06 38.2612C37.06 38.2611 37.06 38.2609 37.06 38.2608C37.06 38.2606 37.06 38.2605 37.06 38.2603C37.06 38.2602 37.06 38.26 37.06 38.2598C37.06 38.2597 37.06 38.2595 37.06 38.2594C37.06 38.2592 37.06 38.2591 37.06 38.2589C37.06 38.2587 37.06 38.2586 37.06 38.2584C37.06 38.2583 37.06 38.2581 37.06 38.258C37.06 38.2578 37.06 38.2577 37.06 38.2575C37.06 38.2573 37.06 38.2572 37.06 38.257C37.06 38.2569 37.06 38.2567 37.06 38.2566C37.06 38.2564 37.06 38.2562 37.06 38.2561C37.06 38.2559 37.06 38.2558 37.06 38.2556C37.06 38.2555 37.06 38.2553 37.06 38.2552C37.06 38.255 37.06 38.2548 37.06 38.2547C37.06 38.2545 37.06 38.2544 37.06 38.2542C37.06 38.2541 37.06 38.2539 37.06 38.2537C37.06 38.2536 37.06 38.2534 37.06 38.2533C37.06 38.2531 37.06 38.253 37.06 38.2528C37.06 38.2527 37.06 38.2525 37.06 38.2523C37.06 38.2522 37.06 38.252 37.06 38.2519C37.06 38.2517 37.06 38.2516 37.06 38.2514C37.06 38.2512 37.06 38.2511 37.06 38.2509C37.06 38.2508 37.06 38.2506 37.06 38.2505C37.06 38.2503 37.06 38.2502 37.06 38.25C37.06 38.2498 37.06 38.2497 37.06 38.2495C37.06 38.2494 37.06 38.2492 37.06 38.2491C37.06 38.2489 37.06 38.2487 37.06 38.2486C37.06 38.2484 37.06 38.2483 37.06 38.2481C37.06 38.248 37.06 38.2478 37.06 38.2477C37.06 38.2475 37.06 38.2473 37.06 38.2472C37.06 38.247 37.06 38.2469 37.06 38.2467C37.06 38.2466 37.06 38.2464 37.06 38.2462C37.06 38.2461 37.06 38.2459 37.06 38.2458C37.06 38.2456 37.06 38.2455 37.06 38.2453C37.06 38.2452 37.06 38.245 37.06 38.2448C37.06 38.2447 37.06 38.2445 37.06 38.2444C37.06 38.2442 37.06 38.2441 37.06 38.2439C37.06 38.2437 37.06 38.2436 37.06 38.2434C37.06 38.2433 37.06 38.2431 37.06 38.243C37.06 38.2428 37.06 38.2427 37.06 38.2425C37.06 38.2423 37.06 38.2422 37.06 38.242C37.06 38.2419 37.06 38.2417 37.06 38.2416C37.06 38.2414 37.06 38.2412 37.06 38.2411C37.06 38.2409 37.06 38.2408 37.06 38.2406C37.06 38.2405 37.06 38.2403 37.06 38.2402C37.06 38.24 37.06 38.2398 37.06 38.2397C37.06 38.2395 37.06 38.2394 37.06 38.2392C37.06 38.2391 37.06 38.2389 37.06 38.2387C37.06 38.2386 37.06 38.2384 37.06 38.2383C37.06 38.2381 37.06 38.238 37.06 38.2378C37.06 38.2377 37.06 38.2375 37.06 38.2373C37.06 38.2372 37.06 38.237 37.06 38.2369C37.06 38.2367 37.06 38.2366 37.06 38.2364C37.06 38.2362 37.06 38.2361 37.06 38.2359C37.06 38.2358 37.06 38.2356 37.06 38.2355C37.06 38.2353 37.06 38.2352 37.06 38.235C37.06 38.2348 37.06 38.2347 37.06 38.2345C37.06 38.2344 37.06 38.2342 37.06 38.2341C37.06 38.2339 37.06 38.2337 37.06 38.2336C37.06 38.2334 37.06 38.2333 37.06 38.2331C37.06 38.233 37.06 38.2328 37.06 38.2327C37.06 38.2325 37.06 38.2323 37.06 38.2322C37.06 38.232 37.06 38.2319 37.06 38.2317C37.06 38.2316 37.06 38.2314 37.06 38.2312C37.06 38.2311 37.06 38.2309 37.06 38.2308C37.06 38.2306 37.06 38.2305 37.06 38.2303C37.06 38.2302 37.06 38.23 37.06 38.2298C37.06 38.2297 37.06 38.2295 37.06 38.2294C37.06 38.2292 37.06 38.2291 37.06 38.2289C37.06 38.2287 37.06 38.2286 37.06 38.2284C37.06 38.2283 37.06 38.2281 37.06 38.228C37.06 38.2278 37.06 38.2277 37.06 38.2275C37.06 38.2273 37.06 38.2272 37.06 38.227C37.06 38.2269 37.06 38.2267 37.06 38.2266C37.06 38.2264 37.06 38.2262 37.06 38.2261C37.06 38.2259 37.06 38.2258 37.06 38.2256C37.06 38.2255 37.06 38.2253 37.06 38.2252C37.06 38.225 37.06 38.2248 37.06 38.2247C37.06 38.2245 37.06 38.2244 37.06 38.2242C37.06 38.2241 37.06 38.2239 37.06 38.2237C37.06 38.2236 37.06 38.2234 37.06 38.2233C37.06 38.2231 37.06 38.223 37.06 38.2228C37.06 38.2227 37.06 38.2225 37.06 38.2223C37.06 38.2222 37.06 38.222 37.06 38.2219C37.06 38.2217 37.06 38.2216 37.06 38.2214C37.06 38.2212 37.06 38.2211 37.06 38.2209C37.06 38.2208 37.06 38.2206 37.06 38.2205C37.06 38.2203 37.06 38.2202 37.06 38.22C37.06 38.2198 37.06 38.2197 37.06 38.2195C37.06 38.2194 37.06 38.2192 37.06 38.2191C37.06 38.2189 37.06 38.2187 37.06 38.2186C37.06 38.2184 37.06 38.2183 37.06 38.2181C37.06 38.218 37.06 38.2178 37.06 38.2177C37.06 38.2175 37.06 38.2173 37.06 38.2172C37.06 38.217 37.06 38.2169 37.06 38.2167C37.06 38.2166 37.06 38.2164 37.06 38.2162C37.06 38.2161 37.06 38.2159 37.06 38.2158C37.06 38.2156 37.06 38.2155 37.06 38.2153C37.06 38.2152 37.06 38.215 37.06 38.2148C37.06 38.2147 37.06 38.2145 37.06 38.2144C37.06 38.2142 37.06 38.2141 37.06 38.2139C37.06 38.2137 37.06 38.2136 37.06 38.2134C37.06 38.2133 37.06 38.2131 37.06 38.213C37.06 38.2128 37.06 38.2127 37.06 38.2125C37.06 38.2123 37.06 38.2122 37.06 38.212C37.06 38.2119 37.06 38.2117 37.06 38.2116C37.06 38.2114 37.06 38.2112 37.06 38.2111C37.06 38.2109 37.06 38.2108 37.06 38.2106C37.06 38.2105 37.06 38.2103 37.06 38.2102C37.06 38.21 37.06 38.2098 37.06 38.2097C37.06 38.2095 37.06 38.2094 37.06 38.2092C37.06 38.2091 37.06 38.2089 37.06 38.2087C37.06 38.2086 37.06 38.2084 37.06 38.2083C37.06 38.2081 37.06 38.208 37.06 38.2078C37.06 38.2077 37.06 38.2075 37.06 38.2073C37.06 38.2072 37.06 38.207 37.06 38.2069C37.06 38.2067 37.06 38.2066 37.06 38.2064C37.06 38.2062 37.06 38.2061 37.06 38.2059C37.06 38.2058 37.06 38.2056 37.06 38.2055C37.06 38.2053 37.06 38.2052 37.06 38.205C37.06 38.2048 37.06 38.2047 37.06 38.2045C37.06 38.2044 37.06 38.2042 37.06 38.2041C37.06 38.2039 37.06 38.2037 37.06 38.2036C37.06 38.2034 37.06 38.2033 37.06 38.2031C37.06 38.203 37.06 38.2028 37.06 38.2027C37.06 38.2025 37.06 38.2023 37.06 38.2022C37.06 38.202 37.06 38.2019 37.06 38.2017C37.06 38.2016 37.06 38.2014 37.06 38.2012C37.06 38.2011 37.06 38.2009 37.06 38.2008C37.06 38.2006 37.06 38.2005 37.06 38.2003C37.06 38.2002 37.06 38.2 37.06 38.1998C37.06 38.1997 37.06 38.1995 37.06 38.1994C37.06 38.1992 37.06 38.1991 37.06 38.1989C37.06 38.1987 37.06 38.1986 37.06 38.1984C37.06 38.1983 37.06 38.1981 37.06 38.198C37.06 38.1978 37.06 38.1977 37.06 38.1975C37.06 38.1973 37.06 38.1972 37.06 38.197C37.06 38.1969 37.06 38.1967 37.06 38.1966C37.06 38.1964 37.06 38.1962 37.06 38.1961C37.06 38.1959 37.06 38.1958 37.06 38.1956C37.06 38.1955 37.06 38.1953 37.06 38.1952C37.06 38.195 37.06 38.1948 37.06 38.1947C37.06 38.1945 37.06 38.1944 37.06 38.1942C37.06 38.1941 37.06 38.1939 37.06 38.1937C37.06 38.1936 37.06 38.1934 37.06 38.1933C37.06 38.1931 37.06 38.193 37.06 38.1928C37.06 38.1927 37.06 38.1925 37.06 38.1923C37.06 38.1922 37.06 38.192 37.06 38.1919C37.06 38.1917 37.06 38.1916 37.06 38.1914C37.06 38.1912 37.06 38.1911 37.06 38.1909C37.06 38.1908 37.06 38.1906 37.06 38.1905C37.06 38.1903 37.06 38.1902 37.06 38.19C37.06 38.1898 37.06 38.1897 37.06 38.1895C37.06 38.1894 37.06 38.1892 37.06 38.1891C37.06 38.1889 37.06 38.1887 37.06 38.1886C37.06 38.1884 37.06 38.1883 37.06 38.1881C37.06 38.188 37.06 38.1878 37.06 38.1877C37.06 38.1875 37.06 38.1873 37.06 38.1872C37.06 38.187 37.06 38.1869 37.06 38.1867C37.06 38.1866 37.06 38.1864 37.06 38.1862C37.06 38.1861 37.06 38.1859 37.06 38.1858C37.06 38.1856 37.06 38.1855 37.06 38.1853C37.06 38.1852 37.06 38.185 37.06 38.1848C37.06 38.1847 37.06 38.1845 37.06 38.1844C37.06 38.1842 37.06 38.1841 37.06 38.1839C37.06 38.1837 37.06 38.1836 37.06 38.1834C37.06 38.1833 37.06 38.1831 37.06 38.183C37.06 38.1828 37.06 38.1827 37.06 38.1825C37.06 38.1823 37.06 38.1822 37.06 38.182C37.06 38.1819 37.06 38.1817 37.06 38.1816C37.06 38.1814 37.06 38.1812 37.06 38.1811C37.06 38.1809 37.06 38.1808 37.06 38.1806C37.06 38.1805 37.06 38.1803 37.06 38.1802C37.06 38.18 37.06 38.1798 37.06 38.1797C37.06 38.1795 37.06 38.1794 37.06 38.1792C37.06 38.1791 37.06 38.1789 37.06 38.1787C37.06 38.1786 37.06 38.1784 37.06 38.1783C37.06 38.1781 37.06 38.178 37.06 38.1778C37.06 38.1777 37.06 38.1775 37.06 38.1773C37.06 38.1772 37.06 38.177 37.06 38.1769C37.06 38.1767 37.06 38.1766 37.06 38.1764C37.06 38.1762 37.06 38.1761 37.06 38.1759C37.06 38.1758 37.06 38.1756 37.06 38.1755C37.06 38.1753 37.06 38.1752 37.06 38.175C37.06 38.1748 37.06 38.1747 37.06 38.1745C37.06 38.1744 37.06 38.1742 37.06 38.1741C37.06 38.1739 37.06 38.1737 37.06 38.1736C37.06 38.1734 37.06 38.1733 37.06 38.1731C37.06 38.173 37.06 38.1728 37.06 38.1727C37.06 38.1725 37.06 38.1723 37.06 38.1722C37.06 38.172 37.06 38.1719 37.06 38.1717C37.06 38.1716 37.06 38.1714 37.06 38.1712C37.06 38.1711 37.06 38.1709 37.06 38.1708C37.06 38.1706 37.06 38.1705 37.06 38.1703C37.06 38.1702 37.06 38.17 37.06 38.1698C37.06 38.1697 37.06 38.1695 37.06 38.1694C37.06 38.1692 37.06 38.1691 37.06 38.1689C37.06 38.1687 37.06 38.1686 37.06 38.1684C37.06 38.1683 37.06 38.1681 37.06 38.168C37.06 38.1678 37.06 38.1677 37.06 38.1675C37.06 38.1673 37.06 38.1672 37.06 38.167C37.06 38.1669 37.06 38.1667 37.06 38.1666C37.06 38.1664 37.06 38.1662 37.06 38.1661C37.06 38.1659 37.06 38.1658 37.06 38.1656C37.06 38.1655 37.06 38.1653 37.06 38.1652C37.06 38.165 37.06 38.1648 37.06 38.1647C37.06 38.1645 37.06 38.1644 37.06 38.1642C37.06 38.1641 37.06 38.1639 37.06 38.1637C37.06 38.1636 37.06 38.1634 37.06 38.1633C37.06 38.1631 37.06 38.163 37.06 38.1628C37.06 38.1627 37.06 38.1625 37.06 38.1623C37.06 38.1622 37.06 38.162 37.06 38.1619C37.06 38.1617 37.06 38.1616 37.06 38.1614C37.06 38.1612 37.06 38.1611 37.06 38.1609C37.06 38.1608 37.06 38.1606 37.06 38.1605C37.06 38.1603 37.06 38.1602 37.06 38.16H34.66C34.66 38.1602 34.66 38.1603 34.66 38.1605C34.66 38.1606 34.66 38.1608 34.66 38.1609C34.66 38.1611 34.66 38.1612 34.66 38.1614C34.66 38.1616 34.66 38.1617 34.66 38.1619C34.66 38.162 34.66 38.1622 34.66 38.1623C34.66 38.1625 34.66 38.1627 34.66 38.1628C34.66 38.163 34.66 38.1631 34.66 38.1633C34.66 38.1634 34.66 38.1636 34.66 38.1637C34.66 38.1639 34.66 38.1641 34.66 38.1642C34.66 38.1644 34.66 38.1645 34.66 38.1647C34.66 38.1648 34.66 38.165 34.66 38.1652C34.66 38.1653 34.66 38.1655 34.66 38.1656C34.66 38.1658 34.66 38.1659 34.66 38.1661C34.66 38.1662 34.66 38.1664 34.66 38.1666C34.66 38.1667 34.66 38.1669 34.66 38.167C34.66 38.1672 34.66 38.1673 34.66 38.1675C34.66 38.1677 34.66 38.1678 34.66 38.168C34.66 38.1681 34.66 38.1683 34.66 38.1684C34.66 38.1686 34.66 38.1687 34.66 38.1689C34.66 38.1691 34.66 38.1692 34.66 38.1694C34.66 38.1695 34.66 38.1697 34.66 38.1698C34.66 38.17 34.66 38.1702 34.66 38.1703C34.66 38.1705 34.66 38.1706 34.66 38.1708C34.66 38.1709 34.66 38.1711 34.66 38.1712C34.66 38.1714 34.66 38.1716 34.66 38.1717C34.66 38.1719 34.66 38.172 34.66 38.1722C34.66 38.1723 34.66 38.1725 34.66 38.1727C34.66 38.1728 34.66 38.173 34.66 38.1731C34.66 38.1733 34.66 38.1734 34.66 38.1736C34.66 38.1737 34.66 38.1739 34.66 38.1741C34.66 38.1742 34.66 38.1744 34.66 38.1745C34.66 38.1747 34.66 38.1748 34.66 38.175C34.66 38.1752 34.66 38.1753 34.66 38.1755C34.66 38.1756 34.66 38.1758 34.66 38.1759C34.66 38.1761 34.66 38.1762 34.66 38.1764C34.66 38.1766 34.66 38.1767 34.66 38.1769C34.66 38.177 34.66 38.1772 34.66 38.1773C34.66 38.1775 34.66 38.1777 34.66 38.1778C34.66 38.178 34.66 38.1781 34.66 38.1783C34.66 38.1784 34.66 38.1786 34.66 38.1787C34.66 38.1789 34.66 38.1791 34.66 38.1792C34.66 38.1794 34.66 38.1795 34.66 38.1797C34.66 38.1798 34.66 38.18 34.66 38.1802C34.66 38.1803 34.66 38.1805 34.66 38.1806C34.66 38.1808 34.66 38.1809 34.66 38.1811C34.66 38.1812 34.66 38.1814 34.66 38.1816C34.66 38.1817 34.66 38.1819 34.66 38.182C34.66 38.1822 34.66 38.1823 34.66 38.1825C34.66 38.1827 34.66 38.1828 34.66 38.183C34.66 38.1831 34.66 38.1833 34.66 38.1834C34.66 38.1836 34.66 38.1837 34.66 38.1839C34.66 38.1841 34.66 38.1842 34.66 38.1844C34.66 38.1845 34.66 38.1847 34.66 38.1848C34.66 38.185 34.66 38.1852 34.66 38.1853C34.66 38.1855 34.66 38.1856 34.66 38.1858C34.66 38.1859 34.66 38.1861 34.66 38.1862C34.66 38.1864 34.66 38.1866 34.66 38.1867C34.66 38.1869 34.66 38.187 34.66 38.1872C34.66 38.1873 34.66 38.1875 34.66 38.1877C34.66 38.1878 34.66 38.188 34.66 38.1881C34.66 38.1883 34.66 38.1884 34.66 38.1886C34.66 38.1887 34.66 38.1889 34.66 38.1891C34.66 38.1892 34.66 38.1894 34.66 38.1895C34.66 38.1897 34.66 38.1898 34.66 38.19C34.66 38.1902 34.66 38.1903 34.66 38.1905C34.66 38.1906 34.66 38.1908 34.66 38.1909C34.66 38.1911 34.66 38.1912 34.66 38.1914C34.66 38.1916 34.66 38.1917 34.66 38.1919C34.66 38.192 34.66 38.1922 34.66 38.1923C34.66 38.1925 34.66 38.1927 34.66 38.1928C34.66 38.193 34.66 38.1931 34.66 38.1933C34.66 38.1934 34.66 38.1936 34.66 38.1937C34.66 38.1939 34.66 38.1941 34.66 38.1942C34.66 38.1944 34.66 38.1945 34.66 38.1947C34.66 38.1948 34.66 38.195 34.66 38.1952C34.66 38.1953 34.66 38.1955 34.66 38.1956C34.66 38.1958 34.66 38.1959 34.66 38.1961C34.66 38.1962 34.66 38.1964 34.66 38.1966C34.66 38.1967 34.66 38.1969 34.66 38.197C34.66 38.1972 34.66 38.1973 34.66 38.1975C34.66 38.1977 34.66 38.1978 34.66 38.198C34.66 38.1981 34.66 38.1983 34.66 38.1984C34.66 38.1986 34.66 38.1987 34.66 38.1989C34.66 38.1991 34.66 38.1992 34.66 38.1994C34.66 38.1995 34.66 38.1997 34.66 38.1998C34.66 38.2 34.66 38.2002 34.66 38.2003C34.66 38.2005 34.66 38.2006 34.66 38.2008C34.66 38.2009 34.66 38.2011 34.66 38.2012C34.66 38.2014 34.66 38.2016 34.66 38.2017C34.66 38.2019 34.66 38.202 34.66 38.2022C34.66 38.2023 34.66 38.2025 34.66 38.2027C34.66 38.2028 34.66 38.203 34.66 38.2031C34.66 38.2033 34.66 38.2034 34.66 38.2036C34.66 38.2037 34.66 38.2039 34.66 38.2041C34.66 38.2042 34.66 38.2044 34.66 38.2045C34.66 38.2047 34.66 38.2048 34.66 38.205C34.66 38.2052 34.66 38.2053 34.66 38.2055C34.66 38.2056 34.66 38.2058 34.66 38.2059C34.66 38.2061 34.66 38.2062 34.66 38.2064C34.66 38.2066 34.66 38.2067 34.66 38.2069C34.66 38.207 34.66 38.2072 34.66 38.2073C34.66 38.2075 34.66 38.2077 34.66 38.2078C34.66 38.208 34.66 38.2081 34.66 38.2083C34.66 38.2084 34.66 38.2086 34.66 38.2087C34.66 38.2089 34.66 38.2091 34.66 38.2092C34.66 38.2094 34.66 38.2095 34.66 38.2097C34.66 38.2098 34.66 38.21 34.66 38.2102C34.66 38.2103 34.66 38.2105 34.66 38.2106C34.66 38.2108 34.66 38.2109 34.66 38.2111C34.66 38.2112 34.66 38.2114 34.66 38.2116C34.66 38.2117 34.66 38.2119 34.66 38.212C34.66 38.2122 34.66 38.2123 34.66 38.2125C34.66 38.2127 34.66 38.2128 34.66 38.213C34.66 38.2131 34.66 38.2133 34.66 38.2134C34.66 38.2136 34.66 38.2137 34.66 38.2139C34.66 38.2141 34.66 38.2142 34.66 38.2144C34.66 38.2145 34.66 38.2147 34.66 38.2148C34.66 38.215 34.66 38.2152 34.66 38.2153C34.66 38.2155 34.66 38.2156 34.66 38.2158C34.66 38.2159 34.66 38.2161 34.66 38.2162C34.66 38.2164 34.66 38.2166 34.66 38.2167C34.66 38.2169 34.66 38.217 34.66 38.2172C34.66 38.2173 34.66 38.2175 34.66 38.2177C34.66 38.2178 34.66 38.218 34.66 38.2181C34.66 38.2183 34.66 38.2184 34.66 38.2186C34.66 38.2187 34.66 38.2189 34.66 38.2191C34.66 38.2192 34.66 38.2194 34.66 38.2195C34.66 38.2197 34.66 38.2198 34.66 38.22C34.66 38.2202 34.66 38.2203 34.66 38.2205C34.66 38.2206 34.66 38.2208 34.66 38.2209C34.66 38.2211 34.66 38.2212 34.66 38.2214C34.66 38.2216 34.66 38.2217 34.66 38.2219C34.66 38.222 34.66 38.2222 34.66 38.2223C34.66 38.2225 34.66 38.2227 34.66 38.2228C34.66 38.223 34.66 38.2231 34.66 38.2233C34.66 38.2234 34.66 38.2236 34.66 38.2237C34.66 38.2239 34.66 38.2241 34.66 38.2242C34.66 38.2244 34.66 38.2245 34.66 38.2247C34.66 38.2248 34.66 38.225 34.66 38.2252C34.66 38.2253 34.66 38.2255 34.66 38.2256C34.66 38.2258 34.66 38.2259 34.66 38.2261C34.66 38.2262 34.66 38.2264 34.66 38.2266C34.66 38.2267 34.66 38.2269 34.66 38.227C34.66 38.2272 34.66 38.2273 34.66 38.2275C34.66 38.2277 34.66 38.2278 34.66 38.228C34.66 38.2281 34.66 38.2283 34.66 38.2284C34.66 38.2286 34.66 38.2287 34.66 38.2289C34.66 38.2291 34.66 38.2292 34.66 38.2294C34.66 38.2295 34.66 38.2297 34.66 38.2298C34.66 38.23 34.66 38.2302 34.66 38.2303C34.66 38.2305 34.66 38.2306 34.66 38.2308C34.66 38.2309 34.66 38.2311 34.66 38.2312C34.66 38.2314 34.66 38.2316 34.66 38.2317C34.66 38.2319 34.66 38.232 34.66 38.2322C34.66 38.2323 34.66 38.2325 34.66 38.2327C34.66 38.2328 34.66 38.233 34.66 38.2331C34.66 38.2333 34.66 38.2334 34.66 38.2336C34.66 38.2337 34.66 38.2339 34.66 38.2341C34.66 38.2342 34.66 38.2344 34.66 38.2345C34.66 38.2347 34.66 38.2348 34.66 38.235C34.66 38.2352 34.66 38.2353 34.66 38.2355C34.66 38.2356 34.66 38.2358 34.66 38.2359C34.66 38.2361 34.66 38.2362 34.66 38.2364C34.66 38.2366 34.66 38.2367 34.66 38.2369C34.66 38.237 34.66 38.2372 34.66 38.2373C34.66 38.2375 34.66 38.2377 34.66 38.2378C34.66 38.238 34.66 38.2381 34.66 38.2383C34.66 38.2384 34.66 38.2386 34.66 38.2387C34.66 38.2389 34.66 38.2391 34.66 38.2392C34.66 38.2394 34.66 38.2395 34.66 38.2397C34.66 38.2398 34.66 38.24 34.66 38.2402C34.66 38.2403 34.66 38.2405 34.66 38.2406C34.66 38.2408 34.66 38.2409 34.66 38.2411C34.66 38.2412 34.66 38.2414 34.66 38.2416C34.66 38.2417 34.66 38.2419 34.66 38.242C34.66 38.2422 34.66 38.2423 34.66 38.2425C34.66 38.2427 34.66 38.2428 34.66 38.243C34.66 38.2431 34.66 38.2433 34.66 38.2434C34.66 38.2436 34.66 38.2437 34.66 38.2439C34.66 38.2441 34.66 38.2442 34.66 38.2444C34.66 38.2445 34.66 38.2447 34.66 38.2448C34.66 38.245 34.66 38.2452 34.66 38.2453C34.66 38.2455 34.66 38.2456 34.66 38.2458C34.66 38.2459 34.66 38.2461 34.66 38.2462C34.66 38.2464 34.66 38.2466 34.66 38.2467C34.66 38.2469 34.66 38.247 34.66 38.2472C34.66 38.2473 34.66 38.2475 34.66 38.2477C34.66 38.2478 34.66 38.248 34.66 38.2481C34.66 38.2483 34.66 38.2484 34.66 38.2486C34.66 38.2487 34.66 38.2489 34.66 38.2491C34.66 38.2492 34.66 38.2494 34.66 38.2495C34.66 38.2497 34.66 38.2498 34.66 38.25C34.66 38.2502 34.66 38.2503 34.66 38.2505C34.66 38.2506 34.66 38.2508 34.66 38.2509C34.66 38.2511 34.66 38.2512 34.66 38.2514C34.66 38.2516 34.66 38.2517 34.66 38.2519C34.66 38.252 34.66 38.2522 34.66 38.2523C34.66 38.2525 34.66 38.2527 34.66 38.2528C34.66 38.253 34.66 38.2531 34.66 38.2533C34.66 38.2534 34.66 38.2536 34.66 38.2537C34.66 38.2539 34.66 38.2541 34.66 38.2542C34.66 38.2544 34.66 38.2545 34.66 38.2547C34.66 38.2548 34.66 38.255 34.66 38.2552C34.66 38.2553 34.66 38.2555 34.66 38.2556C34.66 38.2558 34.66 38.2559 34.66 38.2561C34.66 38.2562 34.66 38.2564 34.66 38.2566C34.66 38.2567 34.66 38.2569 34.66 38.257C34.66 38.2572 34.66 38.2573 34.66 38.2575C34.66 38.2577 34.66 38.2578 34.66 38.258C34.66 38.2581 34.66 38.2583 34.66 38.2584C34.66 38.2586 34.66 38.2587 34.66 38.2589C34.66 38.2591 34.66 38.2592 34.66 38.2594C34.66 38.2595 34.66 38.2597 34.66 38.2598C34.66 38.26 34.66 38.2602 34.66 38.2603C34.66 38.2605 34.66 38.2606 34.66 38.2608C34.66 38.2609 34.66 38.2611 34.66 38.2612C34.66 38.2614 34.66 38.2616 34.66 38.2617C34.66 38.2619 34.66 38.262 34.66 38.2622C34.66 38.2623 34.66 38.2625 34.66 38.2627C34.66 38.2628 34.66 38.263 34.66 38.2631C34.66 38.2633 34.66 38.2634 34.66 38.2636C34.66 38.2637 34.66 38.2639 34.66 38.2641C34.66 38.2642 34.66 38.2644 34.66 38.2645C34.66 38.2647 34.66 38.2648 34.66 38.265C34.66 38.2652 34.66 38.2653 34.66 38.2655C34.66 38.2656 34.66 38.2658 34.66 38.2659C34.66 38.2661 34.66 38.2662 34.66 38.2664C34.66 38.2666 34.66 38.2667 34.66 38.2669C34.66 38.267 34.66 38.2672 34.66 38.2673C34.66 38.2675 34.66 38.2677 34.66 38.2678C34.66 38.268 34.66 38.2681 34.66 38.2683C34.66 38.2684 34.66 38.2686 34.66 38.2687C34.66 38.2689 34.66 38.2691 34.66 38.2692C34.66 38.2694 34.66 38.2695 34.66 38.2697C34.66 38.2698 34.66 38.27 34.66 38.2702C34.66 38.2703 34.66 38.2705 34.66 38.2706C34.66 38.2708 34.66 38.2709 34.66 38.2711C34.66 38.2712 34.66 38.2714 34.66 38.2716C34.66 38.2717 34.66 38.2719 34.66 38.272C34.66 38.2722 34.66 38.2723 34.66 38.2725C34.66 38.2727 34.66 38.2728 34.66 38.273C34.66 38.2731 34.66 38.2733 34.66 38.2734C34.66 38.2736 34.66 38.2737 34.66 38.2739C34.66 38.2741 34.66 38.2742 34.66 38.2744C34.66 38.2745 34.66 38.2747 34.66 38.2748C34.66 38.275 34.66 38.2752 34.66 38.2753C34.66 38.2755 34.66 38.2756 34.66 38.2758C34.66 38.2759 34.66 38.2761 34.66 38.2762C34.66 38.2764 34.66 38.2766 34.66 38.2767C34.66 38.2769 34.66 38.277 34.66 38.2772C34.66 38.2773 34.66 38.2775 34.66 38.2777C34.66 38.2778 34.66 38.278 34.66 38.2781C34.66 38.2783 34.66 38.2784 34.66 38.2786C34.66 38.2787 34.66 38.2789 34.66 38.2791C34.66 38.2792 34.66 38.2794 34.66 38.2795C34.66 38.2797 34.66 38.2798 34.66 38.28C34.66 38.2802 34.66 38.2803 34.66 38.2805C34.66 38.2806 34.66 38.2808 34.66 38.2809C34.66 38.2811 34.66 38.2812 34.66 38.2814C34.66 38.2816 34.66 38.2817 34.66 38.2819C34.66 38.282 34.66 38.2822 34.66 38.2823C34.66 38.2825 34.66 38.2827 34.66 38.2828C34.66 38.283 34.66 38.2831 34.66 38.2833C34.66 38.2834 34.66 38.2836 34.66 38.2837C34.66 38.2839 34.66 38.2841 34.66 38.2842C34.66 38.2844 34.66 38.2845 34.66 38.2847C34.66 38.2848 34.66 38.285 34.66 38.2852C34.66 38.2853 34.66 38.2855 34.66 38.2856C34.66 38.2858 34.66 38.2859 34.66 38.2861C34.66 38.2862 34.66 38.2864 34.66 38.2866C34.66 38.2867 34.66 38.2869 34.66 38.287C34.66 38.2872 34.66 38.2873 34.66 38.2875C34.66 38.2877 34.66 38.2878 34.66 38.288C34.66 38.2881 34.66 38.2883 34.66 38.2884C34.66 38.2886 34.66 38.2887 34.66 38.2889C34.66 38.2891 34.66 38.2892 34.66 38.2894C34.66 38.2895 34.66 38.2897 34.66 38.2898C34.66 38.29 34.66 38.2902 34.66 38.2903C34.66 38.2905 34.66 38.2906 34.66 38.2908C34.66 38.2909 34.66 38.2911 34.66 38.2912C34.66 38.2914 34.66 38.2916 34.66 38.2917C34.66 38.2919 34.66 38.292 34.66 38.2922C34.66 38.2923 34.66 38.2925 34.66 38.2927C34.66 38.2928 34.66 38.293 34.66 38.2931C34.66 38.2933 34.66 38.2934 34.66 38.2936C34.66 38.2937 34.66 38.2939 34.66 38.2941C34.66 38.2942 34.66 38.2944 34.66 38.2945C34.66 38.2947 34.66 38.2948 34.66 38.295C34.66 38.2952 34.66 38.2953 34.66 38.2955C34.66 38.2956 34.66 38.2958 34.66 38.2959C34.66 38.2961 34.66 38.2962 34.66 38.2964C34.66 38.2966 34.66 38.2967 34.66 38.2969C34.66 38.297 34.66 38.2972 34.66 38.2973C34.66 38.2975 34.66 38.2977 34.66 38.2978C34.66 38.298 34.66 38.2981 34.66 38.2983C34.66 38.2984 34.66 38.2986 34.66 38.2987C34.66 38.2989 34.66 38.2991 34.66 38.2992C34.66 38.2994 34.66 38.2995 34.66 38.2997C34.66 38.2998 34.66 38.3 34.66 38.3002C34.66 38.3003 34.66 38.3005 34.66 38.3006C34.66 38.3008 34.66 38.3009 34.66 38.3011C34.66 38.3012 34.66 38.3014 34.66 38.3016C34.66 38.3017 34.66 38.3019 34.66 38.302C34.66 38.3022 34.66 38.3023 34.66 38.3025C34.66 38.3027 34.66 38.3028 34.66 38.303C34.66 38.3031 34.66 38.3033 34.66 38.3034C34.66 38.3036 34.66 38.3037 34.66 38.3039C34.66 38.3041 34.66 38.3042 34.66 38.3044C34.66 38.3045 34.66 38.3047 34.66 38.3048C34.66 38.305 34.66 38.3052 34.66 38.3053C34.66 38.3055 34.66 38.3056 34.66 38.3058C34.66 38.3059 34.66 38.3061 34.66 38.3062C34.66 38.3064 34.66 38.3066 34.66 38.3067C34.66 38.3069 34.66 38.307 34.66 38.3072C34.66 38.3073 34.66 38.3075 34.66 38.3077C34.66 38.3078 34.66 38.308 34.66 38.3081C34.66 38.3083 34.66 38.3084 34.66 38.3086C34.66 38.3087 34.66 38.3089 34.66 38.3091C34.66 38.3092 34.66 38.3094 34.66 38.3095C34.66 38.3097 34.66 38.3098 34.66 38.31C34.66 38.3102 34.66 38.3103 34.66 38.3105C34.66 38.3106 34.66 38.3108 34.66 38.3109C34.66 38.3111 34.66 38.3112 34.66 38.3114C34.66 38.3116 34.66 38.3117 34.66 38.3119C34.66 38.312 34.66 38.3122 34.66 38.3123C34.66 38.3125 34.66 38.3127 34.66 38.3128C34.66 38.313 34.66 38.3131 34.66 38.3133C34.66 38.3134 34.66 38.3136 34.66 38.3137C34.66 38.3139 34.66 38.3141 34.66 38.3142C34.66 38.3144 34.66 38.3145 34.66 38.3147C34.66 38.3148 34.66 38.315 34.66 38.3152C34.66 38.3153 34.66 38.3155 34.66 38.3156C34.66 38.3158 34.66 38.3159 34.66 38.3161C34.66 38.3162 34.66 38.3164 34.66 38.3166C34.66 38.3167 34.66 38.3169 34.66 38.317C34.66 38.3172 34.66 38.3173 34.66 38.3175C34.66 38.3177 34.66 38.3178 34.66 38.318C34.66 38.3181 34.66 38.3183 34.66 38.3184C34.66 38.3186 34.66 38.3187 34.66 38.3189C34.66 38.3191 34.66 38.3192 34.66 38.3194C34.66 38.3195 34.66 38.3197 34.66 38.3198C34.66 38.32 34.66 38.3202 34.66 38.3203C34.66 38.3205 34.66 38.3206 34.66 38.3208C34.66 38.3209 34.66 38.3211 34.66 38.3212C34.66 38.3214 34.66 38.3216 34.66 38.3217C34.66 38.3219 34.66 38.322 34.66 38.3222C34.66 38.3223 34.66 38.3225 34.66 38.3227C34.66 38.3228 34.66 38.323 34.66 38.3231C34.66 38.3233 34.66 38.3234 34.66 38.3236C34.66 38.3237 34.66 38.3239 34.66 38.3241C34.66 38.3242 34.66 38.3244 34.66 38.3245C34.66 38.3247 34.66 38.3248 34.66 38.325C34.66 38.3252 34.66 38.3253 34.66 38.3255C34.66 38.3256 34.66 38.3258 34.66 38.3259C34.66 38.3261 34.66 38.3262 34.66 38.3264C34.66 38.3266 34.66 38.3267 34.66 38.3269C34.66 38.327 34.66 38.3272 34.66 38.3273C34.66 38.3275 34.66 38.3277 34.66 38.3278C34.66 38.328 34.66 38.3281 34.66 38.3283C34.66 38.3284 34.66 38.3286 34.66 38.3287C34.66 38.3289 34.66 38.3291 34.66 38.3292C34.66 38.3294 34.66 38.3295 34.66 38.3297C34.66 38.3298 34.66 38.33 34.66 38.3302C34.66 38.3303 34.66 38.3305 34.66 38.3306C34.66 38.3308 34.66 38.3309 34.66 38.3311C34.66 38.3312 34.66 38.3314 34.66 38.3316C34.66 38.3317 34.66 38.3319 34.66 38.332C34.66 38.3322 34.66 38.3323 34.66 38.3325C34.66 38.3327 34.66 38.3328 34.66 38.333C34.66 38.3331 34.66 38.3333 34.66 38.3334C34.66 38.3336 34.66 38.3337 34.66 38.3339C34.66 38.3341 34.66 38.3342 34.66 38.3344C34.66 38.3345 34.66 38.3347 34.66 38.3348C34.66 38.335 34.66 38.3352 34.66 38.3353C34.66 38.3355 34.66 38.3356 34.66 38.3358C34.66 38.3359 34.66 38.3361 34.66 38.3362C34.66 38.3364 34.66 38.3366 34.66 38.3367C34.66 38.3369 34.66 38.337 34.66 38.3372C34.66 38.3373 34.66 38.3375 34.66 38.3377C34.66 38.3378 34.66 38.338 34.66 38.3381C34.66 38.3383 34.66 38.3384 34.66 38.3386C34.66 38.3387 34.66 38.3389 34.66 38.3391C34.66 38.3392 34.66 38.3394 34.66 38.3395C34.66 38.3397 34.66 38.3398 34.66 38.34C34.66 38.3402 34.66 38.3403 34.66 38.3405C34.66 38.3406 34.66 38.3408 34.66 38.3409C34.66 38.3411 34.66 38.3412 34.66 38.3414C34.66 38.3416 34.66 38.3417 34.66 38.3419C34.66 38.342 34.66 38.3422 34.66 38.3423C34.66 38.3425 34.66 38.3427 34.66 38.3428C34.66 38.343 34.66 38.3431 34.66 38.3433C34.66 38.3434 34.66 38.3436 34.66 38.3437C34.66 38.3439 34.66 38.3441 34.66 38.3442C34.66 38.3444 34.66 38.3445 34.66 38.3447C34.66 38.3448 34.66 38.345 34.66 38.3452C34.66 38.3453 34.66 38.3455 34.66 38.3456C34.66 38.3458 34.66 38.3459 34.66 38.3461C34.66 38.3462 34.66 38.3464 34.66 38.3466C34.66 38.3467 34.66 38.3469 34.66 38.347C34.66 38.3472 34.66 38.3473 34.66 38.3475C34.66 38.3477 34.66 38.3478 34.66 38.348C34.66 38.3481 34.66 38.3483 34.66 38.3484C34.66 38.3486 34.66 38.3487 34.66 38.3489C34.66 38.3491 34.66 38.3492 34.66 38.3494C34.66 38.3495 34.66 38.3497 34.66 38.3498C34.66 38.35 34.66 38.3502 34.66 38.3503C34.66 38.3505 34.66 38.3506 34.66 38.3508C34.66 38.3509 34.66 38.3511 34.66 38.3512C34.66 38.3514 34.66 38.3516 34.66 38.3517C34.66 38.3519 34.66 38.352 34.66 38.3522C34.66 38.3523 34.66 38.3525 34.66 38.3527C34.66 38.3528 34.66 38.353 34.66 38.3531C34.66 38.3533 34.66 38.3534 34.66 38.3536C34.66 38.3537 34.66 38.3539 34.66 38.3541C34.66 38.3542 34.66 38.3544 34.66 38.3545C34.66 38.3547 34.66 38.3548 34.66 38.355C34.66 38.3552 34.66 38.3553 34.66 38.3555C34.66 38.3556 34.66 38.3558 34.66 38.3559C34.66 38.3561 34.66 38.3562 34.66 38.3564C34.66 38.3566 34.66 38.3567 34.66 38.3569C34.66 38.357 34.66 38.3572 34.66 38.3573C34.66 38.3575 34.66 38.3577 34.66 38.3578C34.66 38.358 34.66 38.3581 34.66 38.3583C34.66 38.3584 34.66 38.3586 34.66 38.3587C34.66 38.3589 34.66 38.3591 34.66 38.3592C34.66 38.3594 34.66 38.3595 34.66 38.3597C34.66 38.3598 34.66 38.36 34.66 38.3602C34.66 38.3603 34.66 38.3605 34.66 38.3606C34.66 38.3608 34.66 38.3609 34.66 38.3611C34.66 38.3612 34.66 38.3614 34.66 38.3616C34.66 38.3617 34.66 38.3619 34.66 38.362C34.66 38.3622 34.66 38.3623 34.66 38.3625C34.66 38.3627 34.66 38.3628 34.66 38.363C34.66 38.3631 34.66 38.3633 34.66 38.3634C34.66 38.3636 34.66 38.3637 34.66 38.3639C34.66 38.3641 34.66 38.3642 34.66 38.3644C34.66 38.3645 34.66 38.3647 34.66 38.3648C34.66 38.365 34.66 38.3652 34.66 38.3653C34.66 38.3655 34.66 38.3656 34.66 38.3658C34.66 38.3659 34.66 38.3661 34.66 38.3662C34.66 38.3664 34.66 38.3666 34.66 38.3667C34.66 38.3669 34.66 38.367 34.66 38.3672C34.66 38.3673 34.66 38.3675 34.66 38.3677C34.66 38.3678 34.66 38.368 34.66 38.3681C34.66 38.3683 34.66 38.3684 34.66 38.3686C34.66 38.3687 34.66 38.3689 34.66 38.3691C34.66 38.3692 34.66 38.3694 34.66 38.3695C34.66 38.3697 34.66 38.3698 34.66 38.37C34.66 38.3702 34.66 38.3703 34.66 38.3705C34.66 38.3706 34.66 38.3708 34.66 38.3709C34.66 38.3711 34.66 38.3712 34.66 38.3714C34.66 38.3716 34.66 38.3717 34.66 38.3719C34.66 38.372 34.66 38.3722 34.66 38.3723C34.66 38.3725 34.66 38.3727 34.66 38.3728C34.66 38.373 34.66 38.3731 34.66 38.3733C34.66 38.3734 34.66 38.3736 34.66 38.3737C34.66 38.3739 34.66 38.3741 34.66 38.3742C34.66 38.3744 34.66 38.3745 34.66 38.3747C34.66 38.3748 34.66 38.375 34.66 38.3752C34.66 38.3753 34.66 38.3755 34.66 38.3756C34.66 38.3758 34.66 38.3759 34.66 38.3761C34.66 38.3762 34.66 38.3764 34.66 38.3766C34.66 38.3767 34.66 38.3769 34.66 38.377C34.66 38.3772 34.66 38.3773 34.66 38.3775C34.66 38.3777 34.66 38.3778 34.66 38.378C34.66 38.3781 34.66 38.3783 34.66 38.3784C34.66 38.3786 34.66 38.3787 34.66 38.3789C34.66 38.3791 34.66 38.3792 34.66 38.3794C34.66 38.3795 34.66 38.3797 34.66 38.3798C34.66 38.38 34.66 38.3802 34.66 38.3803C34.66 38.3805 34.66 38.3806 34.66 38.3808C34.66 38.3809 34.66 38.3811 34.66 38.3812C34.66 38.3814 34.66 38.3816 34.66 38.3817C34.66 38.3819 34.66 38.382 34.66 38.3822C34.66 38.3823 34.66 38.3825 34.66 38.3827C34.66 38.3828 34.66 38.383 34.66 38.3831C34.66 38.3833 34.66 38.3834 34.66 38.3836C34.66 38.3837 34.66 38.3839 34.66 38.3841C34.66 38.3842 34.66 38.3844 34.66 38.3845C34.66 38.3847 34.66 38.3848 34.66 38.385C34.66 38.3852 34.66 38.3853 34.66 38.3855C34.66 38.3856 34.66 38.3858 34.66 38.3859C34.66 38.3861 34.66 38.3862 34.66 38.3864C34.66 38.3866 34.66 38.3867 34.66 38.3869C34.66 38.387 34.66 38.3872 34.66 38.3873C34.66 38.3875 34.66 38.3877 34.66 38.3878C34.66 38.388 34.66 38.3881 34.66 38.3883C34.66 38.3884 34.66 38.3886 34.66 38.3887C34.66 38.3889 34.66 38.3891 34.66 38.3892C34.66 38.3894 34.66 38.3895 34.66 38.3897C34.66 38.3898 34.66 38.39 34.66 38.3902C34.66 38.3903 34.66 38.3905 34.66 38.3906C34.66 38.3908 34.66 38.3909 34.66 38.3911C34.66 38.3912 34.66 38.3914 34.66 38.3916C34.66 38.3917 34.66 38.3919 34.66 38.392C34.66 38.3922 34.66 38.3923 34.66 38.3925C34.66 38.3927 34.66 38.3928 34.66 38.393C34.66 38.3931 34.66 38.3933 34.66 38.3934C34.66 38.3936 34.66 38.3937 34.66 38.3939C34.66 38.3941 34.66 38.3942 34.66 38.3944C34.66 38.3945 34.66 38.3947 34.66 38.3948C34.66 38.395 34.66 38.3952 34.66 38.3953C34.66 38.3955 34.66 38.3956 34.66 38.3958C34.66 38.3959 34.66 38.3961 34.66 38.3962C34.66 38.3964 34.66 38.3966 34.66 38.3967C34.66 38.3969 34.66 38.397 34.66 38.3972C34.66 38.3973 34.66 38.3975 34.66 38.3977C34.66 38.3978 34.66 38.398 34.66 38.3981C34.66 38.3983 34.66 38.3984 34.66 38.3986C34.66 38.3987 34.66 38.3989 34.66 38.3991C34.66 38.3992 34.66 38.3994 34.66 38.3995C34.66 38.3997 34.66 38.3998 34.66 38.4H37.06ZM37.06 38.16C37.06 38.1055 37.0659 38.0743 37.0692 38.061C37.0722 38.0489 37.0735 38.0499 37.069 38.0574L35.011 36.8226C34.7585 37.2434 34.66 37.7063 34.66 38.16H37.06ZM37.069 38.0574C37.1668 37.8943 37.3072 37.6824 37.4965 37.4175L35.5435 36.0225C35.3328 36.3176 35.1532 36.5857 35.011 36.8226L37.069 38.0574ZM37.5031 37.4082C37.7522 37.0522 37.9422 36.8469 38.0682 36.7419L36.5318 34.8981C36.1778 35.1931 35.8478 35.5878 35.5369 36.0318L37.5031 37.4082ZM38.1485 36.6685C38.4333 36.3838 38.7263 36.0436 39.0272 35.6567L37.1328 34.1833C36.8737 34.5164 36.6467 34.7762 36.4515 34.9715L38.1485 36.6685ZM36.8983 35.1285L37.0783 36.1485L39.4417 35.7315L39.2617 34.7115L36.8983 35.1285ZM39.118 36.7789C40.8458 35.0119 42.305 33.7917 43.502 33.0662L42.258 31.0138C40.815 31.8883 39.1942 33.2681 37.402 35.1011L39.118 36.7789ZM43.5039 33.065C44.278 32.5939 44.9646 32.4 45.58 32.4V30C44.4354 30 43.322 30.3661 42.2561 31.015L43.5039 33.065ZM45.58 32.4C45.7266 32.4 45.8145 32.4146 45.8582 32.4258C45.9001 32.4366 45.8807 32.4389 45.8363 32.4045C45.8139 32.3872 45.7894 32.3638 45.7666 32.3344C45.7437 32.3049 45.727 32.2753 45.7156 32.2491C45.6931 32.1968 45.7 32.1777 45.7 32.22H48.1C48.1 31.6004 47.8837 30.9536 47.3037 30.5055C46.7825 30.1027 46.1411 30 45.58 30V32.4ZM45.7 32.22C45.7 32.4193 45.5817 32.8741 45.0615 33.6544L47.0585 34.9856C47.6583 34.0859 48.1 33.1407 48.1 32.22H45.7ZM45.0835 33.6225C44.8943 33.8874 44.6667 34.2252 44.5616 34.5405L46.8384 35.2995C46.8248 35.3403 46.8142 35.3599 46.8183 35.3517C46.8212 35.3459 46.8303 35.3285 46.849 35.2974C46.8868 35.2343 46.9472 35.1425 47.0365 35.0175L45.0835 33.6225ZM44.5616 34.5405C44.5796 34.4863 44.6005 34.4509 44.6115 34.4344C44.6223 34.4183 44.6251 34.4178 44.6115 34.4315L46.3085 36.1285C46.5173 35.9197 46.7229 35.646 46.8384 35.2995L44.5616 34.5405ZM44.6115 34.4315C44.8959 34.1471 45.225 34.11 45.37 34.11C45.4471 34.11 45.5053 34.1193 45.5378 34.1258C45.5716 34.1325 45.593 34.1394 45.5995 34.1416L44.8405 36.4184C44.9604 36.4584 45.1485 36.51 45.37 36.51C45.595 36.51 45.9841 36.4529 46.3085 36.1285L44.6115 34.4315ZM45.5995 34.1416C45.6366 34.154 45.7831 34.2061 45.9335 34.3565C46.1134 34.5364 46.24 34.8009 46.24 35.1H43.84C43.84 35.9771 44.5638 36.3262 44.8405 36.4184L45.5995 34.1416ZM46.24 35.1C46.24 34.7394 46.1818 34.3309 45.9788 33.9503C45.7606 33.5412 45.4132 33.2383 44.9813 33.0764L44.1387 35.3236C44.0932 35.3065 44.0361 35.2761 43.9798 35.2268C43.9235 35.1776 43.8849 35.1243 43.8612 35.0797C43.8182 34.9991 43.84 34.9806 43.84 35.1H46.24ZM45.0967 33.1267C44.5912 32.874 44.0441 32.76 43.48 32.76V35.16C43.7159 35.16 43.8888 35.206 44.0233 35.2733L45.0967 33.1267ZM43.48 32.76C42.4216 32.76 41.379 33.1491 40.3757 33.7876L41.6643 35.8124C42.421 35.3309 43.0184 35.16 43.48 35.16V32.76ZM40.3884 33.7797C39.4415 34.3659 38.5039 35.1571 37.5728 36.1305L39.3072 37.7895C40.1361 36.9229 40.9185 36.2741 41.6516 35.8203L40.3884 33.7797ZM37.2633 37.1953C37.4633 38.1953 37.6833 39.2953 37.9233 40.4953L40.2767 40.0247C40.0367 38.8247 39.8167 37.7247 39.6167 36.7247L37.2633 37.1953ZM37.9335 40.5416C38.2194 41.7262 38.5271 42.8345 38.8571 43.8657L41.1429 43.1343C40.8329 42.1655 40.5406 41.1138 40.2665 39.9784L37.9335 40.5416ZM38.8571 43.8657C39.1846 44.8894 39.5163 45.7294 39.8635 46.3246L41.9365 45.1154C41.7237 44.7506 41.4554 44.1106 41.1429 43.1343L38.8571 43.8657ZM39.8824 46.356C40.2312 46.914 40.7375 47.3107 41.3605 47.5184L42.1195 45.2416C42.0225 45.2093 41.9688 45.166 41.9176 45.084L39.8824 46.356ZM41.4797 47.5514C41.8848 47.6415 42.279 47.7 42.64 47.7V45.3C42.521 45.3 42.3152 45.2785 42.0003 45.2086L41.4797 47.5514ZM42.64 47.7C43.5887 47.7 44.4883 47.236 45.2967 46.6072L43.8233 44.7128C43.1917 45.204 42.8113 45.3 42.64 45.3V47.7ZM45.3036 46.6019C46.1141 45.962 46.916 45.2223 47.71 44.3865L45.97 42.7335C45.244 43.4977 44.5259 44.158 43.8164 44.7181L45.3036 46.6019ZM47.709 44.3876C48.5297 43.5258 49.2729 42.6798 49.937 41.8496L48.063 40.3504C47.4471 41.1202 46.7503 41.9142 45.971 42.7324L47.709 44.3876ZM49.9143 41.8772C50.6003 41.0701 51.1385 40.4087 51.52 39.9L49.6 38.46C49.2615 38.9113 48.7597 39.5299 48.0857 40.3228L49.9143 41.8772ZM49.623 39.9296C49.6131 39.9173 49.5593 39.8455 49.5333 39.7153C49.505 39.574 49.5245 39.4377 49.5658 39.3343L51.7942 40.2257C52.0678 39.5417 51.8664 38.892 51.497 38.4304L49.623 39.9296ZM49.4963 39.5827C49.4967 39.5804 49.4933 39.6027 49.4704 39.6521C49.4475 39.7018 49.4082 39.7719 49.3435 39.8625L51.2965 41.2575C51.5616 40.8863 51.7838 40.4564 51.8637 39.9773L49.4963 39.5827ZM49.3215 39.8944C49.1784 40.109 49.0388 40.3006 48.903 40.4704L50.777 41.9696C50.9612 41.7394 51.1416 41.491 51.3185 41.2256L49.3215 39.8944ZM48.903 40.4704C48.1163 41.4537 47.2692 42.4585 46.3612 43.4849L48.1588 45.0751C49.0908 44.0215 49.9637 42.9863 50.777 41.9696L48.903 40.4704ZM46.3769 43.4675C45.5017 44.4189 44.5721 45.2721 43.5883 46.0289L45.0517 47.9311C46.1479 47.0879 47.1783 46.1411 48.1431 45.0925L46.3769 43.4675ZM43.5601 46.0513C43.2216 46.3282 42.7807 46.5949 42.219 46.8406L43.181 49.0394C43.8993 48.7251 44.5384 48.3518 45.0799 47.9087L43.5601 46.0513ZM42.2787 46.8164C41.7642 47.0093 41.2666 47.1 40.78 47.1V49.5C41.5734 49.5 42.3558 49.3507 43.1213 49.0636L42.2787 46.8164Z" fill="#FF7A00"/>
</svg>
